<svg width="21" height="21" viewBox="0 0 21 21" fill="none" xmlns="http://www.w3.org/2000/svg">
<mask id="path-1-inside-1_254_5828" fill="white">
<path d="M9.21429 0.642857C9.21429 0.472361 9.14656 0.308848 9.026 0.188289C8.90544 0.0677294 8.74192 0 8.57143 0C8.40093 0 8.23742 0.0677294 8.11686 0.188289C7.9963 0.308848 7.92857 0.472361 7.92857 0.642857V1.28571H4.07143C3.44628 1.28571 2.84673 1.53406 2.40468 1.97611C1.96263 2.41816 1.71429 3.0177 1.71429 3.64286V8.35714C1.71429 8.9823 1.96263 9.58185 2.40468 10.0239C2.62356 10.2428 2.88341 10.4164 3.16939 10.5349C3.45537 10.6533 3.76188 10.7143 4.07143 10.7143H11.8577C11.9149 10.6109 11.962 10.5023 11.9991 10.3886L12.2589 9.42857H4.07143C3.48 9.42857 3 8.94857 3 8.35714V3.64286C3 3.05143 3.48 2.57143 4.07143 2.57143H13.0714C13.6629 2.57143 14.1429 3.05143 14.1429 3.64286V8.21314C14.2646 8.25657 14.3789 8.31571 14.4857 8.39057C14.7188 8.56365 14.8949 8.80243 14.9914 9.07629L15.132 9.50229C15.3206 9.16286 15.4286 8.77286 15.4286 8.35714V3.64286C15.4286 3.33331 15.3676 3.0268 15.2491 2.74082C15.1307 2.45484 14.9571 2.19499 14.7382 1.97611C14.5193 1.75722 14.2595 1.5836 13.9735 1.46514C13.6875 1.34668 13.381 1.28571 13.0714 1.28571H9.21429V0.642857ZM2.35714 12.4286H8.886C8.73924 12.6044 8.63945 12.8145 8.59598 13.0394C8.55251 13.2642 8.56677 13.4964 8.63743 13.7143H2.35714C1.76571 13.7143 1.28571 14.1943 1.28571 14.7857V15.4286C1.28571 16.6483 1.85486 17.6854 3.02829 18.4457C4.22657 19.2231 6.07114 19.7143 8.57143 19.7143C11.0717 19.7143 12.9163 19.2231 14.1146 18.4457C14.1828 18.4016 14.2499 18.3559 14.316 18.3086C14.3829 18.2771 14.4477 18.24 14.5106 18.1971L14.622 18.1029C14.5891 18.2083 14.572 18.3181 14.5714 18.4286C14.574 18.6703 14.6486 18.906 14.7857 19.1057C14.8568 19.2072 14.9443 19.2961 15.0446 19.3689C14.9692 19.4226 14.8926 19.4746 14.8149 19.5249C13.3337 20.4857 11.214 21 8.57143 21C5.92886 21 3.80914 20.484 2.32886 19.5257C0.823714 18.5494 0 17.1223 0 15.4286V14.7857C0 14.1606 0.248341 13.561 0.690391 13.119C1.13244 12.6769 1.73199 12.4286 2.35714 12.4286ZM7.28571 6C7.28571 6.16884 7.25246 6.33603 7.18785 6.49202C7.12323 6.64801 7.02853 6.78975 6.90914 6.90914C6.78975 7.02853 6.64801 7.12323 6.49202 7.18785C6.33603 7.25246 6.16884 7.28571 6 7.28571C5.83116 7.28571 5.66397 7.25246 5.50798 7.18785C5.35199 7.12323 5.21025 7.02853 5.09086 6.90914C4.97147 6.78975 4.87677 6.64801 4.81215 6.49202C4.74754 6.33603 4.71429 6.16884 4.71429 6C4.71429 5.65901 4.84974 5.33198 5.09086 5.09086C5.33198 4.84974 5.65901 4.71429 6 4.71429C6.34099 4.71429 6.66802 4.84974 6.90914 5.09086C7.15026 5.33198 7.28571 5.65901 7.28571 6ZM11.1429 7.28571C11.4839 7.28571 11.8109 7.15026 12.052 6.90914C12.2931 6.66802 12.4286 6.34099 12.4286 6C12.4286 5.65901 12.2931 5.33198 12.052 5.09086C11.8109 4.84974 11.4839 4.71429 11.1429 4.71429C10.8019 4.71429 10.4748 4.84974 10.2337 5.09086C9.9926 5.33198 9.85714 5.65901 9.85714 6C9.85714 6.34099 9.9926 6.66802 10.2337 6.90914C10.4748 7.15026 10.8019 7.28571 11.1429 7.28571ZM12.1466 14.8526C12.4437 15.1513 12.6671 15.5152 12.7989 15.9154L13.2257 17.226C13.2616 17.3269 13.3278 17.4142 13.4153 17.4759C13.5028 17.5376 13.6072 17.5707 13.7143 17.5707C13.8213 17.5707 13.9258 17.5376 14.0133 17.4759C14.1007 17.4142 14.167 17.3269 14.2029 17.226L14.6297 15.9146C14.7623 15.5158 14.9862 15.1535 15.2835 14.8565C15.5808 14.5594 15.9434 14.3359 16.3423 14.2037L17.6537 13.7777C17.755 13.7422 17.8427 13.6761 17.9048 13.5886C17.9668 13.5011 18.0002 13.3964 18.0002 13.2891C18.0002 13.1818 17.9668 13.0772 17.9048 12.9897C17.8427 12.9021 17.755 12.8361 17.6537 12.8006L17.628 12.7937L16.3157 12.3677C15.9168 12.2355 15.5543 12.012 15.2569 11.715C14.9596 11.418 14.7358 11.0556 14.6031 10.6569L14.1771 9.34543C14.1417 9.24417 14.0756 9.15644 13.988 9.09437C13.9005 9.0323 13.7959 8.99896 13.6886 8.99896C13.5813 8.99896 13.4766 9.0323 13.3891 9.09437C13.3016 9.15644 13.2355 9.24417 13.2 9.34543L12.7731 10.6569L12.762 10.6894C12.6288 11.0783 12.4087 11.4316 12.1183 11.7224C11.8279 12.0133 11.4749 12.234 11.0863 12.3677L9.77486 12.7937C9.6736 12.8292 9.58587 12.8953 9.5238 12.9828C9.46173 13.0703 9.42839 13.175 9.42839 13.2823C9.42839 13.3896 9.46173 13.4942 9.5238 13.5818C9.58587 13.6693 9.6736 13.7354 9.77486 13.7709L11.0863 14.1969C11.4866 14.3297 11.8491 14.5551 12.1466 14.8526ZM19.5609 17.8783L20.3477 18.1337L20.364 18.1371C20.4249 18.1583 20.4777 18.1979 20.5151 18.2504C20.5525 18.3029 20.5726 18.3658 20.5726 18.4303C20.5726 18.4948 20.5525 18.5576 20.5151 18.6102C20.4777 18.6627 20.4249 18.7023 20.364 18.7234L19.5763 18.9789C19.3374 19.0589 19.1202 19.1933 18.9421 19.3715C18.7639 19.5497 18.6295 19.7668 18.5494 20.0057L18.2931 20.7926C18.2716 20.8531 18.2319 20.9055 18.1794 20.9425C18.1269 20.9795 18.0642 20.9994 18 20.9994C17.9358 20.9994 17.8731 20.9795 17.8206 20.9425C17.7681 20.9055 17.7284 20.8531 17.7069 20.7926L17.4506 20.0057C17.3716 19.7658 17.2376 19.5477 17.0593 19.3688C16.881 19.19 16.6633 19.0552 16.4237 18.9754L15.636 18.72C15.5751 18.6989 15.5223 18.6593 15.4849 18.6067C15.4475 18.5542 15.4274 18.4913 15.4274 18.4269C15.4274 18.3624 15.4475 18.2995 15.4849 18.247C15.5223 18.1944 15.5751 18.1548 15.636 18.1337L16.4237 17.8783C16.6598 17.7962 16.8738 17.6609 17.0492 17.4828C17.2246 17.3048 17.3567 17.0887 17.4351 16.8514L17.6914 16.0646C17.713 16.004 17.7527 15.9517 17.8052 15.9146C17.8577 15.8776 17.9203 15.8577 17.9846 15.8577C18.0488 15.8577 18.1115 15.8776 18.164 15.9146C18.2164 15.9517 18.2562 16.004 18.2777 16.0646L18.5331 16.8514C18.6127 17.0908 18.747 17.3083 18.9254 17.4865C19.1039 17.6648 19.3214 17.7989 19.5609 17.8783Z"/>
</mask>
<path d="M9.21429 0.642857C9.21429 0.472361 9.14656 0.308848 9.026 0.188289C8.90544 0.0677294 8.74192 0 8.57143 0C8.40093 0 8.23742 0.0677294 8.11686 0.188289C7.9963 0.308848 7.92857 0.472361 7.92857 0.642857V1.28571H4.07143C3.44628 1.28571 2.84673 1.53406 2.40468 1.97611C1.96263 2.41816 1.71429 3.0177 1.71429 3.64286V8.35714C1.71429 8.9823 1.96263 9.58185 2.40468 10.0239C2.62356 10.2428 2.88341 10.4164 3.16939 10.5349C3.45537 10.6533 3.76188 10.7143 4.07143 10.7143H11.8577C11.9149 10.6109 11.962 10.5023 11.9991 10.3886L12.2589 9.42857H4.07143C3.48 9.42857 3 8.94857 3 8.35714V3.64286C3 3.05143 3.48 2.57143 4.07143 2.57143H13.0714C13.6629 2.57143 14.1429 3.05143 14.1429 3.64286V8.21314C14.2646 8.25657 14.3789 8.31571 14.4857 8.39057C14.7188 8.56365 14.8949 8.80243 14.9914 9.07629L15.132 9.50229C15.3206 9.16286 15.4286 8.77286 15.4286 8.35714V3.64286C15.4286 3.33331 15.3676 3.0268 15.2491 2.74082C15.1307 2.45484 14.9571 2.19499 14.7382 1.97611C14.5193 1.75722 14.2595 1.5836 13.9735 1.46514C13.6875 1.34668 13.381 1.28571 13.0714 1.28571H9.21429V0.642857ZM2.35714 12.4286H8.886C8.73924 12.6044 8.63945 12.8145 8.59598 13.0394C8.55251 13.2642 8.56677 13.4964 8.63743 13.7143H2.35714C1.76571 13.7143 1.28571 14.1943 1.28571 14.7857V15.4286C1.28571 16.6483 1.85486 17.6854 3.02829 18.4457C4.22657 19.2231 6.07114 19.7143 8.57143 19.7143C11.0717 19.7143 12.9163 19.2231 14.1146 18.4457C14.1828 18.4016 14.2499 18.3559 14.316 18.3086C14.3829 18.2771 14.4477 18.24 14.5106 18.1971L14.622 18.1029C14.5891 18.2083 14.572 18.3181 14.5714 18.4286C14.574 18.6703 14.6486 18.906 14.7857 19.1057C14.8568 19.2072 14.9443 19.2961 15.0446 19.3689C14.9692 19.4226 14.8926 19.4746 14.8149 19.5249C13.3337 20.4857 11.214 21 8.57143 21C5.92886 21 3.80914 20.484 2.32886 19.5257C0.823714 18.5494 0 17.1223 0 15.4286V14.7857C0 14.1606 0.248341 13.561 0.690391 13.119C1.13244 12.6769 1.73199 12.4286 2.35714 12.4286ZM7.28571 6C7.28571 6.16884 7.25246 6.33603 7.18785 6.49202C7.12323 6.64801 7.02853 6.78975 6.90914 6.90914C6.78975 7.02853 6.64801 7.12323 6.49202 7.18785C6.33603 7.25246 6.16884 7.28571 6 7.28571C5.83116 7.28571 5.66397 7.25246 5.50798 7.18785C5.35199 7.12323 5.21025 7.02853 5.09086 6.90914C4.97147 6.78975 4.87677 6.64801 4.81215 6.49202C4.74754 6.33603 4.71429 6.16884 4.71429 6C4.71429 5.65901 4.84974 5.33198 5.09086 5.09086C5.33198 4.84974 5.65901 4.71429 6 4.71429C6.34099 4.71429 6.66802 4.84974 6.90914 5.09086C7.15026 5.33198 7.28571 5.65901 7.28571 6ZM11.1429 7.28571C11.4839 7.28571 11.8109 7.15026 12.052 6.90914C12.2931 6.66802 12.4286 6.34099 12.4286 6C12.4286 5.65901 12.2931 5.33198 12.052 5.09086C11.8109 4.84974 11.4839 4.71429 11.1429 4.71429C10.8019 4.71429 10.4748 4.84974 10.2337 5.09086C9.9926 5.33198 9.85714 5.65901 9.85714 6C9.85714 6.34099 9.9926 6.66802 10.2337 6.90914C10.4748 7.15026 10.8019 7.28571 11.1429 7.28571ZM12.1466 14.8526C12.4437 15.1513 12.6671 15.5152 12.7989 15.9154L13.2257 17.226C13.2616 17.3269 13.3278 17.4142 13.4153 17.4759C13.5028 17.5376 13.6072 17.5707 13.7143 17.5707C13.8213 17.5707 13.9258 17.5376 14.0133 17.4759C14.1007 17.4142 14.167 17.3269 14.2029 17.226L14.6297 15.9146C14.7623 15.5158 14.9862 15.1535 15.2835 14.8565C15.5808 14.5594 15.9434 14.3359 16.3423 14.2037L17.6537 13.7777C17.755 13.7422 17.8427 13.6761 17.9048 13.5886C17.9668 13.5011 18.0002 13.3964 18.0002 13.2891C18.0002 13.1818 17.9668 13.0772 17.9048 12.9897C17.8427 12.9021 17.755 12.8361 17.6537 12.8006L17.628 12.7937L16.3157 12.3677C15.9168 12.2355 15.5543 12.012 15.2569 11.715C14.9596 11.418 14.7358 11.0556 14.6031 10.6569L14.1771 9.34543C14.1417 9.24417 14.0756 9.15644 13.988 9.09437C13.9005 9.0323 13.7959 8.99896 13.6886 8.99896C13.5813 8.99896 13.4766 9.0323 13.3891 9.09437C13.3016 9.15644 13.2355 9.24417 13.2 9.34543L12.7731 10.6569L12.762 10.6894C12.6288 11.0783 12.4087 11.4316 12.1183 11.7224C11.8279 12.0133 11.4749 12.234 11.0863 12.3677L9.77486 12.7937C9.6736 12.8292 9.58587 12.8953 9.5238 12.9828C9.46173 13.0703 9.42839 13.175 9.42839 13.2823C9.42839 13.3896 9.46173 13.4942 9.5238 13.5818C9.58587 13.6693 9.6736 13.7354 9.77486 13.7709L11.0863 14.1969C11.4866 14.3297 11.8491 14.5551 12.1466 14.8526ZM19.5609 17.8783L20.3477 18.1337L20.364 18.1371C20.4249 18.1583 20.4777 18.1979 20.5151 18.2504C20.5525 18.3029 20.5726 18.3658 20.5726 18.4303C20.5726 18.4948 20.5525 18.5576 20.5151 18.6102C20.4777 18.6627 20.4249 18.7023 20.364 18.7234L19.5763 18.9789C19.3374 19.0589 19.1202 19.1933 18.9421 19.3715C18.7639 19.5497 18.6295 19.7668 18.5494 20.0057L18.2931 20.7926C18.2716 20.8531 18.2319 20.9055 18.1794 20.9425C18.1269 20.9795 18.0642 20.9994 18 20.9994C17.9358 20.9994 17.8731 20.9795 17.8206 20.9425C17.7681 20.9055 17.7284 20.8531 17.7069 20.7926L17.4506 20.0057C17.3716 19.7658 17.2376 19.5477 17.0593 19.3688C16.881 19.19 16.6633 19.0552 16.4237 18.9754L15.636 18.72C15.5751 18.6989 15.5223 18.6593 15.4849 18.6067C15.4475 18.5542 15.4274 18.4913 15.4274 18.4269C15.4274 18.3624 15.4475 18.2995 15.4849 18.247C15.5223 18.1944 15.5751 18.1548 15.636 18.1337L16.4237 17.8783C16.6598 17.7962 16.8738 17.6609 17.0492 17.4828C17.2246 17.3048 17.3567 17.0887 17.4351 16.8514L17.6914 16.0646C17.713 16.004 17.7527 15.9517 17.8052 15.9146C17.8577 15.8776 17.9203 15.8577 17.9846 15.8577C18.0488 15.8577 18.1115 15.8776 18.164 15.9146C18.2164 15.9517 18.2562 16.004 18.2777 16.0646L18.5331 16.8514C18.6127 17.0908 18.747 17.3083 18.9254 17.4865C19.1039 17.6648 19.3214 17.7989 19.5609 17.8783Z" fill="white" stroke="black" stroke-width="2" mask="url(#path-1-inside-1_254_5828)"/>
</svg>
