<svg width="20" height="20" viewBox="0 0 20 20" fill="none" xmlns="http://www.w3.org/2000/svg">
<path d="M16.3333 15.4167H17.0833H16.3333ZM3.5 12.2853H4.25C4.25 11.9872 4.07345 11.7174 3.80028 11.598L3.5 12.2853ZM16.3333 12.2853L16.0331 11.598C15.7599 11.7174 15.5833 11.9872 15.5833 12.2853H16.3333ZM13.2917 5.33333C13.2917 5.74755 13.6275 6.08333 14.0417 6.08333C14.4559 6.08333 14.7917 5.74755 14.7917 5.33333H14.0417H13.2917ZM5.04167 5.33333C5.04167 5.74755 5.37745 6.08333 5.79167 6.08333C6.20588 6.08333 6.54167 5.74755 6.54167 5.33333H5.79167H5.04167ZM5.33333 3.5V2.75C2.38781 2.75 0 5.13781 0 8.08333H0.75H1.5C1.5 5.96624 3.21624 4.25 5.33333 4.25V3.5ZM14.5 3.5V4.25C16.6171 4.25 18.3333 5.96624 18.3333 8.08333H19.0833H19.8333C19.8333 5.13781 17.4455 2.75 14.5 2.75V3.5ZM12.6667 19.0833V18.3333H7.16667V19.0833V19.8333H12.6667V19.0833ZM7.16667 19.0833V18.3333C6.28122 18.3333 5.69259 18.3317 5.25494 18.2729C4.83886 18.217 4.67321 18.1219 4.5673 18.016L4.03697 18.5464L3.50664 19.0767C3.9377 19.5078 4.47266 19.6812 5.05507 19.7595C5.6159 19.8349 6.32363 19.8333 7.16667 19.8333V19.0833ZM3.5 15.4167H2.75C2.75 16.2597 2.74841 16.9674 2.82381 17.5283C2.90211 18.1107 3.07558 18.6456 3.50664 19.0767L4.03697 18.5464L4.5673 18.016C4.46139 17.9101 4.36637 17.7445 4.31043 17.3284C4.25159 16.8907 4.25 16.3021 4.25 15.4167H3.5ZM16.3333 15.4167H15.5833C15.5833 16.3021 15.5817 16.8907 15.5229 17.3284C15.467 17.7445 15.3719 17.9101 15.266 18.016L15.7964 18.5464L16.3267 19.0767C16.7578 18.6456 16.9312 18.1107 17.0095 17.5283C17.0849 16.9674 17.0833 16.2597 17.0833 15.4167H16.3333ZM12.6667 19.0833V19.8333C13.5097 19.8333 14.2174 19.8349 14.7783 19.7595C15.3607 19.6812 15.8956 19.5078 16.3267 19.0767L15.7964 18.5464L15.266 18.016C15.1601 18.1219 14.9945 18.217 14.5784 18.2729C14.1407 18.3317 13.5521 18.3333 12.6667 18.3333V19.0833ZM5.33333 3.5V4.25C5.52615 4.25 5.7152 4.26418 5.89958 4.29143L6.00925 3.54949L6.11891 2.80755C5.86214 2.7696 5.5998 2.75 5.33333 2.75V3.5ZM9.91667 0.75V0C7.77111 0 5.95112 1.38559 5.29898 3.30863L6.00925 3.54949L6.71952 3.79036C7.17151 2.45751 8.43324 1.5 9.91667 1.5V0.75ZM6.00925 3.54949L5.29898 3.30863C5.13194 3.8012 5.04167 4.32833 5.04167 4.875H5.79167H6.54167C6.54167 4.4943 6.60441 4.1298 6.71952 3.79036L6.00925 3.54949ZM14.5 3.5V2.75C14.2335 2.75 13.9712 2.7696 13.7144 2.80755L13.8241 3.54949L13.9337 4.29143C14.1181 4.26418 14.3072 4.25 14.5 4.25V3.5ZM9.91667 0.75V1.5C11.4001 1.5 12.6618 2.45751 13.1138 3.79036L13.8241 3.54949L14.5344 3.30863C13.8822 1.38559 12.0622 0 9.91667 0V0.75ZM13.8241 3.54949L13.1138 3.79036C13.2289 4.1298 13.2917 4.4943 13.2917 4.875H14.0417H14.7917C14.7917 4.32833 14.7014 3.8012 14.5344 3.30863L13.8241 3.54949ZM3.5 15.4167H4.25V12.2853H3.5H2.75V15.4167H3.5ZM3.5 12.2853L3.80028 11.598C2.44485 11.0058 1.5 9.65408 1.5 8.08333H0.75H0C0 10.2715 1.31766 12.1502 3.19972 12.9726L3.5 12.2853ZM16.3333 12.2853H15.5833L15.5833 15.4167H16.3333H17.0833L17.0833 12.2853L16.3333 12.2853ZM19.0833 8.08333H18.3333C18.3333 9.65408 17.3885 11.0058 16.0331 11.598L16.3333 12.2853L16.6336 12.9726C18.5157 12.1502 19.8333 10.2715 19.8333 8.08333H19.0833ZM14.0417 4.875H13.2917V5.33333H14.0417H14.7917V4.875H14.0417ZM5.79167 4.875H5.04167V5.33333H5.79167H6.54167V4.875H5.79167Z" fill="#2F2F2F"/>
</svg>
