<svg width="21" height="18" viewBox="0 0 21 18" fill="none" xmlns="http://www.w3.org/2000/svg">
<path d="M10.375 4.875C11.0625 2.1611 13.6591 0.775356 19.3125 0.750005C19.4029 0.749664 19.4924 0.767214 19.576 0.801644C19.6596 0.836073 19.7355 0.886701 19.7994 0.950609C19.8633 1.01452 19.9139 1.09044 19.9484 1.17401C19.9828 1.25757 20.0003 1.34713 20 1.4375V13.8125C20 13.9948 19.9276 14.1697 19.7986 14.2986C19.6697 14.4276 19.4948 14.5 19.3125 14.5C13.8125 14.5 11.6877 15.609 10.375 17.25M10.375 4.875C9.6875 2.1611 7.0909 0.775356 1.4375 0.750005C1.34713 0.749664 1.25757 0.767214 1.17401 0.801644C1.09044 0.836073 1.01452 0.886701 0.950609 0.950609C0.886701 1.01452 0.836073 1.09044 0.801643 1.17401C0.767214 1.25757 0.749664 1.34713 0.750005 1.4375V13.7296C0.750005 14.1541 1.01297 14.5 1.4375 14.5C6.9375 14.5 9.07004 15.6172 10.375 17.25M10.375 4.875V17.25" stroke="black" stroke-width="1.5" stroke-linecap="round" stroke-linejoin="round"/>
</svg>
