<svg width="20" height="20" viewBox="0 0 20 20" fill="none" xmlns="http://www.w3.org/2000/svg">
<g clip-path="url(#clip0_385_4315)">
<path d="M13.2746 0.595255C15.5384 4.64135 20.5707 9.41804 17.6254 14.1327C15.1862 18.0374 9.32894 18.037 6.88973 14.1327C3.94449 9.41761 8.97765 4.64006 11.2414 0.594393C11.6858 -0.199567 12.8311 -0.196981 13.2746 0.595255Z" fill="#FACF5F"/>
<path d="M13.4901 0.96896C13.2793 1.06551 13.0936 1.22801 12.9656 1.45646C10.7018 5.50212 5.66862 10.2797 8.61386 14.9947C9.0617 15.7115 9.62463 16.2964 10.2604 16.7499C8.92291 16.3214 7.71214 15.449 6.88973 14.1327C3.94449 9.41761 8.97765 4.64006 11.2414 0.594393C11.6858 -0.199567 12.8311 -0.196981 13.2746 0.595255C13.344 0.718962 13.416 0.84353 13.4901 0.96896Z" fill="#FADA86"/>
<path d="M9.45438 1.9627C8.96904 1.09503 7.71431 1.09158 7.22767 1.96184C4.74795 6.3937 -0.766242 11.6273 2.46046 16.7923C5.13243 21.0695 11.5488 21.0695 14.2207 16.7923C17.447 11.6277 11.9345 6.395 9.45438 1.9627Z" fill="#FFE773"/>
<path d="M9.81386 3.25493C7.33414 7.6868 1.81995 12.9204 5.04665 18.0854C5.4626 18.751 5.96863 19.313 6.53759 19.7712C4.92165 19.3527 3.43977 18.36 2.46046 16.7923C-0.766242 11.6273 4.74795 6.3937 7.22767 1.96184C7.71431 1.09158 8.96904 1.09503 9.45438 1.9627C9.63671 2.28856 9.83541 2.61873 10.0462 2.95321C9.9574 3.03812 9.87895 3.13898 9.81386 3.25493Z" fill="#FFF0A6"/>
<path d="M7.73326 16.2286C8.6311 16.8411 7.94706 18.2471 6.91172 17.9174C4.9044 17.2782 3.30614 15.351 3.55053 12.0666C3.63415 10.9437 5.2794 10.9256 5.38457 12.0562C5.5613 13.9545 6.47681 15.3721 7.73326 16.2286Z" fill="#FFF8D6"/>
</g>
<defs>
<clipPath id="clip0_385_4315">
<rect width="20" height="20" fill="white"/>
</clipPath>
</defs>
</svg>
