<?xml version="1.0" encoding="UTF-8"?>
<svg version="1.1" xmlns="http://www.w3.org/2000/svg" width="512" height="512">
<path d="M0 0 C0.82435547 -0.020625 1.64871094 -0.04125 2.49804688 -0.0625 C3.29146484 -0.06765625 4.08488281 -0.0728125 4.90234375 -0.078125 C5.99083618 -0.09214355 5.99083618 -0.09214355 7.10131836 -0.10644531 C9.64483748 0.35584 10.48758472 1.23434461 12.0625 3.25 C13.23928234 6.78034701 13.30406385 9.71521903 13.375 13.4375 C13.41238281 14.70980469 13.44976562 15.98210938 13.48828125 17.29296875 C12.53748255 26.12929059 7.34648591 31.54313484 1.2164917 37.57702637 C0.42086484 38.37607092 -0.37476202 39.17511548 -1.19449878 39.99837351 C-3.8536594 42.6641044 -6.52682897 45.3153184 -9.20019531 47.96679688 C-11.11406704 49.87730989 -13.02491028 51.79084159 -14.93588257 53.70425415 C-19.04688635 57.81735085 -23.16512444 61.92308587 -27.28842926 66.02384949 C-33.24994483 71.95279599 -39.2003267 77.89281489 -45.14808759 83.83555585 C-54.79924657 93.47796987 -64.4592961 103.11142552 -74.125 112.73925781 C-83.51185825 122.08937529 -92.89448772 131.4437031 -102.27148438 140.80371094 C-102.84991062 141.38108629 -103.42833687 141.95846165 -104.02429119 142.55333322 C-106.9261873 145.45000902 -109.82800072 148.34676765 -112.72977304 151.24356747 C-136.78620945 175.25856673 -160.85709957 199.2590302 -184.9375 223.25 C-183.59135189 226.03954484 -182.34337975 228.09000607 -180.13563538 230.27218628 C-179.27977089 231.12567154 -179.27977089 231.12567154 -178.40661621 231.99639893 C-177.78266968 232.60844177 -177.15872314 233.22048462 -176.51586914 233.85107422 C-175.52779518 234.83235794 -175.52779518 234.83235794 -174.51976013 235.83346558 C-173.09015249 237.25212243 -171.65827784 238.66849761 -170.22441292 240.08285141 C-167.95421427 242.32288443 -165.69075977 244.56953207 -163.42906189 246.81814575 C-156.99770754 253.20975126 -150.55378442 259.58863174 -144.10668945 265.96435547 C-140.16235288 269.86594537 -136.22537721 273.77484333 -132.29263115 277.68811417 C-130.7936397 279.17654678 -129.29174103 280.66205753 -127.7868824 282.14455795 C-125.68057015 284.21962792 -123.5836666 286.30379681 -121.48852539 288.39013672 C-120.86660309 288.9981311 -120.24468079 289.60612549 -119.60391235 290.23254395 C-115.69078571 294.15408976 -112.49884266 297.94798436 -111.5390625 303.59375 C-111.54679687 304.3053125 -111.55453125 305.016875 -111.5625 305.75 C-111.55476563 306.4615625 -111.54703125 307.173125 -111.5390625 307.90625 C-112.75582058 315.06365046 -117.75392042 319.48922021 -122.68103027 324.36775208 C-123.47776956 325.16846577 -124.27450885 325.96917946 -125.09539175 326.79415721 C-127.76678908 329.47517851 -130.44877644 332.14534555 -133.13085938 334.81567383 C-135.04905269 336.73463784 -136.96499679 338.65584198 -138.88105774 340.57693481 C-143.54570125 345.25105851 -148.21833848 349.91711113 -152.89379847 354.5804126 C-158.33680934 360.00979574 -163.77217406 365.44680665 -169.20731682 370.88406428 C-178.90261781 380.58255383 -188.60532481 390.27360062 -198.31201172 399.96069336 C-207.7351 409.3647649 -217.15219199 418.77478967 -226.56298828 428.19116211 C-236.80999423 438.4442217 -247.06009969 448.69416286 -257.31581926 458.93850726 C-258.40861101 460.03009169 -259.50140209 461.12167679 -260.5941925 462.21326256 C-261.13188691 462.75035342 -261.66958131 463.28744429 -262.22356948 463.84081063 C-266.01699171 467.63034961 -269.80826917 471.42202632 -273.59880066 475.21445656 C-278.2147617 479.83253653 -282.83436256 484.44693892 -287.45864475 489.05668709 C-289.81896536 491.40974974 -292.17709885 493.76489805 -294.53205299 496.1233387 C-297.08143998 498.67592818 -299.63685113 501.22232555 -302.19396973 503.76716614 C-302.94191976 504.5188955 -303.68986979 505.27062485 -304.46048498 506.04513389 C-305.48556276 507.06146338 -305.48556276 507.06146338 -306.53134918 508.09832478 C-307.12094752 508.68705633 -307.71054585 509.27578789 -308.31801081 509.8823598 C-312.71017217 513.5914901 -319.5603444 512.70373328 -325.02734375 512.59765625 C-330.3733322 512.1223386 -332.26753865 511.09065723 -335.9375 507.25 C-339.40009094 503.09489087 -339.97649572 498.53242036 -339.9375 493.25 C-339.18244258 489.42672514 -337.88803839 485.84698291 -336.5625 482.1875 C-336.16458252 481.0423291 -335.76666504 479.8971582 -335.35668945 478.71728516 C-334.17747928 475.32835757 -332.97290183 471.94885903 -331.76483154 468.57012939 C-330.24944114 464.32044032 -328.75372313 460.06379802 -327.25390625 455.80859375 C-324.78472003 448.81122268 -322.30598677 441.81731205 -319.81947327 434.82608032 C-314.84804663 420.84682555 -309.93232375 406.84848131 -305.03030396 392.84475708 C-296.77823614 369.27228172 -288.43265473 345.73597394 -279.9375 322.25 C-284.52581895 325.72037278 -288.49620385 329.67730093 -292.54190063 333.74760437 C-293.67831955 334.88485835 -293.67831955 334.88485835 -294.83769643 336.04508716 C-297.37415599 338.58458128 -299.90702194 341.12762961 -302.43994141 343.6706543 C-304.25821867 345.4924879 -306.07673138 347.31408654 -307.89546204 349.13546753 C-311.81038172 353.05667731 -315.72357384 356.97960418 -319.63570023 360.90360069 C-325.29420739 366.57909653 -330.95643551 372.25086882 -336.61976902 377.92154822 C-345.81154564 387.12526335 -355.00181554 396.33048111 -364.19042969 405.53735352 C-364.74007898 406.08809293 -365.28972828 406.63883235 -365.85603361 407.20626084 C-373.66450082 415.03035444 -381.47147992 422.85593124 -389.27787106 430.68209616 C-390.10325457 431.50956965 -390.10325457 431.50956965 -390.9453125 432.35375977 C-391.49489685 432.90473765 -392.04448121 433.45571554 -392.61071964 434.02338972 C-401.76602396 443.20170782 -410.92516946 452.37618155 -420.08748949 461.54749614 C-425.73962705 467.20549331 -431.38847666 472.86673458 -437.03317462 478.53215406 C-441.35316985 482.86744441 -445.67829502 487.19758221 -450.00537682 491.5257988 C-451.78292187 493.30549906 -453.55873546 495.08693055 -455.33272362 496.87017632 C-457.7462772 499.29584093 -460.16584254 501.71534206 -462.58706665 504.13334656 C-463.29474296 504.84753067 -464.00241927 505.56171479 -464.73154032 506.29754084 C-465.70251707 507.2634695 -465.70251707 507.2634695 -466.69310951 508.24891186 C-467.25124608 508.80834994 -467.80938264 509.36778801 -468.38443244 509.94417876 C-472.0001991 512.9843201 -476.47222259 512.46821867 -480.9375 512.5 C-482.02417969 512.5309375 -482.02417969 512.5309375 -483.1328125 512.5625 C-488.39546747 512.60133878 -488.39546747 512.60133878 -490.76953125 511.0625 C-494.61098053 505.10118741 -498.16175265 498.45948783 -496.9375 491.25 C-494.07673162 484.39728211 -490.17385932 479.92095874 -484.92332268 474.74083805 C-484.10551038 473.91811078 -483.28769808 473.0953835 -482.44510359 472.2477251 C-480.17726187 469.97030443 -477.90070322 467.70204241 -475.62014011 465.43737398 C-473.13975989 462.9698665 -470.67104218 460.49073591 -468.20081437 458.01307243 C-463.87131133 453.67374523 -459.53444046 449.34189323 -455.19264603 445.01486588 C-448.73653168 438.580649 -442.29192352 432.1349989 -435.84959596 425.68698154 C-425.01153574 414.84001916 -414.16412197 404.00245648 -403.31127548 393.17028999 C-392.56451241 382.4439726 -381.8216789 371.7137456 -371.08414078 360.97819328 C-370.41648684 360.31066918 -369.7488329 359.64314507 -369.06094702 358.95539296 C-366.35087321 356.24581909 -363.64082939 353.53621523 -360.93082445 350.82657248 C-336.23323119 326.13228231 -311.52612818 301.44752974 -286.81298828 276.76879883 C-263.46975892 253.45805576 -240.13215518 230.14170113 -216.80126953 206.81860352 C-216.08222681 206.09980384 -215.36318409 205.38100416 -214.6223522 204.64042268 C-211.00080111 201.02009362 -207.37925938 197.39975519 -203.75772107 193.77941334 C-203.04311468 193.06504321 -202.32850829 192.35067309 -201.59224715 191.61465539 C-200.15130999 190.17419239 -198.71037484 188.7337274 -197.26944169 187.29326039 C-174.34621993 164.37750547 -151.4188442 141.46590711 -128.49037989 118.55539777 C-121.77281701 111.84308424 -115.05540694 105.13061794 -108.33838415 98.41776395 C-94.21228295 84.30053393 -80.08480968 70.18468244 -65.9526106 56.07355643 C-60.1061746 50.2357745 -54.26048773 44.3972478 -48.41702652 38.55648804 C-43.57615901 33.7178655 -38.73365417 28.88088983 -33.88884366 24.04621518 C-31.44690067 21.60928702 -29.00576506 19.17156431 -26.56677686 16.73167855 C-23.94679972 14.11157733 -21.32381789 11.49452313 -18.69999504 8.87827396 C-17.54964941 7.7257029 -17.54964941 7.7257029 -16.37606448 6.54984757 C-15.33449931 5.5131907 -15.33449931 5.5131907 -14.27189243 4.45559126 C-13.67163806 3.85607587 -13.07138369 3.25656048 -12.4529398 2.63887796 C-8.82292746 -0.68797418 -4.66241481 0.02902671 0 0 Z M-212.65859985 249.73059082 C-213.34698944 250.42342163 -214.03537903 251.11625244 -214.74462891 251.83007812 C-215.52528717 252.61088745 -216.30594543 253.39169678 -217.11026001 254.19616699 C-217.95301483 255.04924438 -218.79576965 255.90232178 -219.6640625 256.78125 C-220.52687836 257.64689575 -221.38969421 258.5125415 -222.27865601 259.40441895 C-225.04464531 262.18164053 -227.80361599 264.96572161 -230.5625 267.75 C-232.43127657 269.62991899 -234.30161863 271.50827099 -236.171875 273.38671875 C-240.76566965 278.0026142 -245.3537142 282.62416636 -249.9375 287.25 C-248.30337557 288.95840281 -247.06843906 290.18453047 -244.9375 291.25 C-240.06870969 303.02913088 -243.44462001 314.79437937 -247.44140625 326.27734375 C-247.91865115 327.69937323 -248.39393762 329.12206124 -248.86741638 330.54534912 C-249.87105685 333.54995366 -250.88710749 336.54992377 -251.91381836 339.54672241 C-253.51573495 344.22356042 -255.08777827 348.91008213 -256.65429688 353.59887695 C-258.49272698 359.0967466 -260.33618596 364.59285447 -262.1880703 370.08620739 C-266.20336308 382.00079596 -270.12689318 393.94313729 -273.96603394 405.915802 C-274.92176281 408.88855023 -275.88936281 411.85725585 -276.85766602 414.82592773 C-277.4266795 416.59595514 -277.99500496 418.36620393 -278.5625 420.13671875 C-278.82276474 420.92705505 -279.08302948 421.71739136 -279.35118103 422.53167725 C-280.77800484 426.8568492 -280.77800484 426.8568492 -279.9375 431.25 C-238.3575 389.67 -196.7775 348.09 -153.9375 305.25 C-155.94976712 301.22546577 -157.84567532 299.08842301 -160.99804688 295.93066406 C-161.51206558 295.41314072 -162.02608429 294.89561737 -162.55567932 294.3624115 C-164.25088276 292.65842684 -165.95327158 290.96183668 -167.65625 289.265625 C-168.83716633 288.0833614 -170.01778563 286.90080104 -171.19812012 285.71795654 C-173.6696932 283.24343744 -176.14484174 280.77256614 -178.62255859 278.30419922 C-181.80391387 275.1342631 -184.97617377 271.95540018 -188.14583588 268.77377701 C-190.58024089 266.33216064 -193.0193699 263.89530855 -195.4599762 261.45989227 C-196.63207485 260.28913083 -197.80268126 259.11687351 -198.9717865 257.94312286 C-200.60206345 256.3077899 -202.23857322 254.67896706 -203.87695312 253.05175781 C-204.8080188 252.12228333 -205.73908447 251.19280884 -206.69836426 250.23516846 C-209.34311608 247.89038971 -209.95153731 247.40181719 -212.65859985 249.73059082 Z " fill="#000000" transform="translate(497.9375,-0.25)"/>
<path d="M0 0 C4.0521538 3.18999342 6.02359537 5.92269592 7 11 C6.63493981 19.24023147 4.04146801 26.50365546 1.328125 34.234375 C0.84816241 35.62399451 0.36902429 37.01389902 -0.10934448 38.40406799 C-1.38267446 42.09658938 -2.66756169 45.78498193 -3.95545197 49.47244644 C-5.2822088 53.27556422 -6.60026514 57.08169615 -7.91943359 60.88745117 C-9.7445099 66.14976823 -11.5736536 71.41064197 -13.40740013 76.66994381 C-15.72607824 83.32116573 -18.02613364 89.97806033 -20.29260254 96.64730835 C-21.46863311 100.10770914 -22.65395305 103.56487542 -23.84143066 107.0213623 C-24.35825461 108.53254296 -24.87096411 110.04513787 -25.37927246 111.5592041 C-26.066359 113.60242206 -26.76923331 115.63949953 -27.4765625 117.67578125 C-27.84861816 118.76802002 -28.22067383 119.86025879 -28.60400391 120.9855957 C-30.81951794 125.76960265 -33.58698835 129.12393278 -38.125 131.9375 C-43.59649543 133.94451142 -49.76979498 133.1879196 -55.15625 131.20703125 C-59.04383855 129.18910923 -61.31789407 127.01836416 -63 123 C-64.20675553 117.51229608 -63.65765825 113.43612433 -61.9375 108.1875 C-61.71360596 107.46699463 -61.48971191 106.74648926 -61.2590332 106.00415039 C-60.52449792 103.66305526 -59.76568452 101.33108398 -59 99 C-58.72607422 98.16146484 -58.45214844 97.32292969 -58.16992188 96.45898438 C-56.47750074 91.29533289 -54.75080873 86.14412873 -53 81 C-53.33 80.67 -53.66 80.34 -54 80 C-94.92 120.92 -135.84 161.84 -178 204 C-175.97526642 208.04946715 -174.10000294 210.09181118 -170.87890625 213.2109375 C-169.85079082 214.21862693 -168.82279991 215.22644342 -167.79492188 216.234375 C-166.18018779 217.80570621 -164.56305396 219.3744645 -162.94311523 220.94042969 C-161.37345853 222.46150577 -159.81336975 223.9919225 -158.25390625 225.5234375 C-157.31877197 226.43013184 -156.3836377 227.33682617 -155.42016602 228.27099609 C-150.84278517 233.43249747 -149.43163597 237.85597241 -149.64453125 244.59765625 C-150.3117983 249.10720826 -152.70710628 251.79051877 -155.9375 254.8125 C-158.38161806 256.21971949 -160.19500048 256.67383727 -163 257 C-164.051875 257.12375 -165.10375 257.2475 -166.1875 257.375 C-174.10458855 256.59626998 -180.01370617 252.52887551 -185.3125 246.80078125 C-186.99734349 245.00283484 -188.75406843 243.41448516 -190.625 241.8125 C-194.88807877 238.13714665 -199.01887854 234.32766362 -203.12670898 230.48046875 C-206.38027918 227.44424712 -209.72171856 224.60748503 -213.1875 221.8125 C-217.49155339 218.00506816 -218.65144764 214.6565069 -219 209 C-219.05542969 208.3296875 -219.11085938 207.659375 -219.16796875 206.96875 C-219.46343075 199.87766192 -218.57473916 193.31789904 -213.76209831 187.88400364 C-212.35476091 186.4396927 -210.92803609 185.01411386 -209.48629761 183.60414124 C-208.70210768 182.80973694 -207.91791775 182.01533264 -207.10996449 181.19685549 C-204.484072 178.5454311 -201.83393745 175.91968566 -199.18310547 173.29321289 C-197.29285758 171.39511514 -195.40402396 169.49569966 -193.51679993 167.59460449 C-188.92360915 162.97417923 -184.31181867 158.37276533 -179.69312744 153.77784551 C-175.93924931 150.04252876 -172.19246727 146.3002285 -168.45062637 142.55285454 C-167.91756242 142.01900667 -167.38449846 141.48515881 -166.83528105 140.93513374 C-165.75233004 139.85051691 -164.66939803 138.76588111 -163.5864848 137.68122654 C-153.43773921 127.51770199 -143.2680602 117.37533661 -133.09080793 107.24036812 C-124.36241063 98.54733531 -115.65103664 89.83754877 -106.95214844 81.11499023 C-96.84471116 70.98007782 -86.72772773 60.85486403 -76.59472764 50.74550432 C-75.51389883 49.66715694 -74.43307899 48.58880057 -73.35226822 47.5104351 C-72.82051061 46.97989814 -72.288753 46.44936117 -71.74088152 45.90274732 C-67.99771659 42.16690936 -64.26136085 38.42434361 -60.52752304 34.67918587 C-55.97615636 30.11446716 -51.41412079 25.56073824 -46.83821492 21.02061427 C-44.50459898 18.70473216 -42.17765017 16.38279764 -39.86018181 14.0507412 C-37.34559627 11.5220161 -34.81329701 9.01247754 -32.27560425 6.50697327 C-31.5493182 5.76798501 -30.82303215 5.02899675 -30.07473743 4.2676149 C-21.48787446 -4.1159705 -10.86235712 -5.09491422 0 0 Z " fill="#000000" transform="translate(347,3)"/>
</svg>
