<svg width="30" height="30" viewBox="0 0 30 30" fill="none" xmlns="http://www.w3.org/2000/svg">
<path d="M3.75 8.75V6.25C3.75 5.58696 4.01339 4.95107 4.48223 4.48223C4.95107 4.01339 5.58696 3.75 6.25 3.75H8.75M21.25 3.75H23.75C24.413 3.75 25.0489 4.01339 25.5178 4.48223C25.9866 4.95107 26.25 5.58696 26.25 6.25V8.75M26.25 21.25V23.75C26.25 24.413 25.9866 25.0489 25.5178 25.5178C25.0489 25.9866 24.413 26.25 23.75 26.25H21.25M8.75 26.25H6.25C5.58696 26.25 4.95107 25.9866 4.48223 25.5178C4.01339 25.0489 3.75 24.413 3.75 23.75V21.25" stroke="#262135" stroke-linecap="round" stroke-linejoin="round"/>
<path d="M12.145 10.9351C11.714 10.9351 11.3007 11.1063 10.996 11.411C10.6912 11.7158 10.52 12.1291 10.52 12.5601C10.52 12.991 10.6912 13.4044 10.996 13.7091C11.3007 14.0139 11.714 14.1851 12.145 14.1851H12.155C12.586 14.1851 12.9993 14.0139 13.3041 13.7091C13.6088 13.4044 13.78 12.991 13.78 12.5601C13.78 12.1291 13.6088 11.7158 13.3041 11.411C12.9993 11.1063 12.586 10.9351 12.155 10.9351H12.145Z" fill="#262135"/>
<path d="M8 8.92857C8 8.41708 8.20319 7.92654 8.56487 7.56487C8.92654 7.20319 9.41708 7 9.92857 7H21.0714C21.5829 7 22.0735 7.20319 22.4351 7.56487C22.7968 7.92654 23 8.41708 23 8.92857V20.0714C23 20.5829 22.7968 21.0735 22.4351 21.4351C22.0735 21.7968 21.5829 22 21.0714 22H9.92857C9.41708 22 8.92654 21.7968 8.56487 21.4351C8.20319 21.0735 8 20.5829 8 20.0714V8.92857ZM9.92857 8.28571C9.75808 8.28571 9.59456 8.35344 9.474 8.474C9.35344 8.59456 9.28571 8.75808 9.28571 8.92857V17.5686L10.5294 15.94C10.71 15.7036 10.9428 15.5121 11.2096 15.3806C11.4764 15.2491 11.7701 15.1811 12.0676 15.1819C12.365 15.1828 12.6583 15.2524 12.9244 15.3854C13.1905 15.5184 13.4222 15.7111 13.6014 15.9486L14.6429 17.3286C14.7112 17.4192 14.8024 17.4901 14.9071 17.5341C15.0118 17.5781 15.1263 17.5935 15.2389 17.5789C15.3515 17.5643 15.4582 17.5201 15.5482 17.4508C15.6382 17.3815 15.7082 17.2897 15.7511 17.1846L17.4466 13.03C18.0183 11.6286 19.9083 11.4014 20.7946 12.6289L21.7143 13.9009V8.92857C21.7143 8.75808 21.6466 8.59456 21.526 8.474C21.4054 8.35344 21.2419 8.28571 21.0714 8.28571H9.92857ZM9.28571 20.0714C9.28571 20.4263 9.57371 20.7143 9.92857 20.7143H21.0714C21.2419 20.7143 21.4054 20.6466 21.526 20.526C21.6466 20.4054 21.7143 20.2419 21.7143 20.0714V16.0943L19.7531 13.3823C19.6859 13.2894 19.5951 13.2162 19.4901 13.1702C19.3851 13.1242 19.2696 13.1071 19.1558 13.1208C19.042 13.1344 18.9338 13.1783 18.8426 13.2477C18.7514 13.3172 18.6805 13.4099 18.6371 13.516L16.9417 17.6697C16.376 19.0549 14.5186 19.2974 13.6169 18.1034L12.5754 16.7234C12.5157 16.6442 12.4384 16.58 12.3497 16.5356C12.2609 16.4913 12.1631 16.4681 12.0639 16.4678C11.9647 16.4676 11.8668 16.4903 11.7779 16.5342C11.6889 16.5781 11.6113 16.642 11.5511 16.7209L9.41514 19.5186C9.3778 19.5664 9.33428 19.6091 9.28571 19.6454V20.0714Z" fill="#262135"/>
</svg>
