<svg width="20" height="20" viewBox="0 0 20 20" fill="none" xmlns="http://www.w3.org/2000/svg">
<g clip-path="url(#clip0_385_4301)">
<path d="M7.59992 13.6002L1.44827 19.7518C1.11694 20.0831 0.579803 20.0831 0.24847 19.7518C-0.0828633 19.4204 -0.0828241 18.8833 0.24847 18.552L6.40008 12.4004C6.73141 12.069 7.26855 12.069 7.59988 12.4004C7.93122 12.7316 7.93122 13.2688 7.59992 13.6002Z" fill="url(#paint0_linear_385_4301)"/>
<path d="M7.84863 12.9999C7.84863 13.2172 7.76549 13.4344 7.6 13.5999L3.0902 18.1097L1.8902 16.9097L6.4 12.3999C6.73137 12.0685 7.26863 12.0685 7.6 12.3999C7.67891 12.4786 7.7415 12.5721 7.78417 12.6751C7.82683 12.7781 7.84874 12.8884 7.84863 12.9999Z" fill="url(#paint1_linear_385_4301)"/>
<path d="M19.5282 0.737188C19.5382 0.720756 19.548 0.704364 19.5577 0.68805C19.6528 0.528246 19.4718 0.347266 19.312 0.442364C19.2957 0.452089 19.2794 0.461893 19.2629 0.471893C18.7517 0.781815 18.1786 0.974952 17.5831 1.0268C16.6582 1.10727 15.7895 1.47731 15.1194 2.14742C14.2374 3.02942 13.8748 4.25527 14.0085 5.50072C14.0362 5.75891 14.2412 5.96393 14.4994 5.99162C15.7448 6.12527 16.9707 5.76268 17.8527 4.88068C18.5228 4.21056 18.8928 3.34193 18.9733 2.41703C19.0251 1.8215 19.2183 1.24836 19.5282 0.737188Z" fill="url(#paint2_linear_385_4301)"/>
<path d="M17.8526 4.88079C18.5228 4.21067 18.8928 3.34204 18.9733 2.41714C19.0251 1.82161 19.2182 1.24847 19.5282 0.737295C19.5381 0.720864 19.548 0.704472 19.5577 0.688158C19.6053 0.608276 19.5838 0.52306 19.5304 0.469727L14.1675 5.83267C14.2567 5.92207 14.3738 5.97819 14.4994 5.99169C15.7448 6.12537 16.9707 5.76275 17.8526 4.88079Z" fill="url(#paint3_linear_385_4301)"/>
<path d="M14.9884 2.28564C14.2019 3.1551 13.8816 4.31898 14.0084 5.5007C14.0361 5.7589 14.2412 5.96392 14.4993 5.99161C15.6811 6.11843 16.8449 5.79812 17.7144 5.01161L14.9884 2.28564Z" fill="url(#paint4_linear_385_4301)"/>
<path d="M19.8418 6.2242C19.8594 6.21644 19.8769 6.20867 19.8942 6.20087C20.0637 6.12452 20.0193 5.87244 19.8338 5.85867C19.8148 5.85726 19.7957 5.85592 19.7766 5.85467C19.1802 5.81534 18.5999 5.64483 18.0823 5.34569C17.2785 4.88115 16.3547 4.68601 15.4215 4.85056C14.1931 5.06715 13.1929 5.86334 12.5881 6.9602C12.4627 7.18758 12.513 7.47315 12.7086 7.64389C13.6522 8.46773 14.8643 8.87381 16.0927 8.65722C17.026 8.49267 17.8273 7.99334 18.4237 7.28189C18.8078 6.82385 19.2947 6.46518 19.8418 6.2242Z" fill="url(#paint5_linear_385_4301)"/>
<path d="M19.8418 6.2242C19.8594 6.21644 19.8769 6.20867 19.8942 6.20087C20.0637 6.12452 20.0193 5.87244 19.8338 5.85867C19.8148 5.85726 19.7957 5.85592 19.7766 5.85467C19.1802 5.81534 18.5999 5.64483 18.0823 5.34569C17.2785 4.88115 16.3547 4.68601 15.4215 4.85056C14.1931 5.06715 13.1929 5.86334 12.5881 6.9602C12.4627 7.18758 12.513 7.47315 12.7086 7.64389C13.6522 8.46773 14.8643 8.87381 16.0927 8.65722C17.026 8.49267 17.8273 7.99334 18.4237 7.28189C18.8078 6.82385 19.2947 6.46518 19.8418 6.2242Z" fill="url(#paint6_linear_385_4301)"/>
<path d="M16.0927 8.65688C17.026 8.49233 17.8273 7.993 18.4238 7.28155C18.8078 6.82343 19.2948 6.46476 19.8419 6.22378C19.8595 6.21602 19.8769 6.20825 19.8942 6.20045C19.979 6.16229 20.0103 6.08017 19.9972 6.00586L12.528 7.32288C12.5498 7.44727 12.6136 7.56043 12.7087 7.64351C13.6522 8.46735 14.8643 8.87347 16.0927 8.65688Z" fill="url(#paint7_linear_385_4301)"/>
<path d="M15.2349 4.88867C14.092 5.14977 13.162 5.91946 12.5881 6.96016C12.4627 7.18754 12.5131 7.47306 12.7087 7.64385C13.6039 8.42553 14.7411 8.83071 15.9044 8.68514L15.2349 4.88867Z" fill="url(#paint8_linear_385_4301)"/>
<path d="M13.7761 0.158182C13.7838 0.140574 13.7916 0.123123 13.7994 0.105829C13.8758 -0.0637399 14.1278 -0.0192693 14.1416 0.166182C14.143 0.185123 14.1444 0.204182 14.1456 0.223358C14.1849 0.819829 14.3555 1.4001 14.6546 1.91767C15.1191 2.72148 15.3143 3.64524 15.1497 4.57853C14.9331 5.80689 14.1369 6.80704 13.0401 7.41191C12.8127 7.53728 12.5271 7.48697 12.3564 7.29136C11.5326 6.34783 11.1265 5.13567 11.3431 3.90732C11.5076 2.97403 12.0069 2.17269 12.7184 1.57626C13.1764 1.19218 13.5351 0.70524 13.7761 0.158182Z" fill="url(#paint9_linear_385_4301)"/>
<path d="M11.343 3.90734C11.5075 2.97405 12.0069 2.17271 12.7183 1.57628C13.1764 1.19224 13.5351 0.705301 13.7761 0.158203C13.7838 0.140595 13.7916 0.123144 13.7994 0.10585C13.8376 0.021066 13.9197 -0.0102281 13.994 0.00286989L12.677 7.47201C12.5526 7.45022 12.4394 7.38645 12.3564 7.29134C11.5325 6.34789 11.1264 5.13573 11.343 3.90734Z" fill="url(#paint10_linear_385_4301)"/>
<path d="M15.1115 4.76515C14.8504 5.9081 14.0807 6.83806 13.04 7.41198C12.8127 7.53739 12.5271 7.48704 12.3564 7.29143C11.5747 6.39617 11.1695 5.25904 11.3151 4.0957L15.1115 4.76515Z" fill="url(#paint11_linear_385_4301)"/>
<path d="M11.3224 2.61179C11.3301 2.59419 11.3379 2.57674 11.3457 2.55944C11.422 2.38987 11.6741 2.43434 11.6879 2.61979C11.6893 2.63874 11.6906 2.6578 11.6919 2.67697C11.7312 3.27344 11.9017 3.85372 12.2009 4.37129C12.6654 5.17509 12.8605 6.09885 12.696 7.03215C12.4794 8.2605 11.6832 9.26066 10.5864 9.86552C10.359 9.99089 10.0734 9.94058 9.90267 9.74497C9.07882 8.80144 8.67275 7.58929 8.88933 6.36093C9.05388 5.42764 9.55322 4.6263 10.2647 4.02987C10.7227 3.64579 11.0814 3.15885 11.3224 2.61179Z" fill="url(#paint12_linear_385_4301)"/>
<path d="M11.3224 2.61179C11.3301 2.59419 11.3379 2.57674 11.3457 2.55944C11.422 2.38987 11.6741 2.43434 11.6879 2.61979C11.6893 2.63874 11.6906 2.6578 11.6919 2.67697C11.7312 3.27344 11.9017 3.85372 12.2009 4.37129C12.6654 5.17509 12.8605 6.09885 12.696 7.03215C12.4794 8.2605 11.6832 9.26066 10.5864 9.86552C10.359 9.99089 10.0734 9.94058 9.90267 9.74497C9.07882 8.80144 8.67275 7.58929 8.88933 6.36093C9.05388 5.42764 9.55322 4.6263 10.2647 4.02987C10.7227 3.64579 11.0814 3.15885 11.3224 2.61179Z" fill="url(#paint13_linear_385_4301)"/>
<path d="M8.88925 6.36095C9.0538 5.42766 9.55314 4.62633 10.2646 4.02989C10.7227 3.64586 11.0814 3.15891 11.3224 2.61182C11.3301 2.59421 11.3379 2.57676 11.3457 2.55946C11.3839 2.47468 11.466 2.44339 11.5403 2.45648L10.2233 9.92562C10.0989 9.90383 9.9857 9.84006 9.90263 9.74495C9.07878 8.8015 8.67267 7.58935 8.88925 6.36095Z" fill="url(#paint14_linear_385_4301)"/>
<path d="M12.6578 7.21877C12.3967 8.36171 11.627 9.29167 10.5863 9.86559C10.3589 9.991 10.0734 9.94065 9.90263 9.74504C9.12094 8.84979 8.71577 7.71265 8.86133 6.54932L12.6578 7.21877Z" fill="url(#paint15_linear_385_4301)"/>
<path d="M17.3881 8.67782C17.4057 8.67005 17.4231 8.66229 17.4404 8.65448C17.61 8.57813 17.5655 8.32605 17.3801 8.31229C17.361 8.31087 17.342 8.30953 17.3229 8.30829C16.7264 8.26895 16.1462 8.09844 15.6286 7.79931C14.8248 7.33476 13.901 7.13962 12.9677 7.30417C11.7394 7.52076 10.7392 8.31695 10.1344 9.41382C10.009 9.64119 10.0593 9.92676 10.2549 10.0975C11.1984 10.9213 12.4106 11.3274 13.6389 11.1108C14.5722 10.9463 15.3736 10.447 15.97 9.7355C16.3541 9.27746 16.841 8.91876 17.3881 8.67782Z" fill="url(#paint16_linear_385_4301)"/>
<path d="M13.639 11.111C14.5723 10.9464 15.3736 10.4471 15.97 9.73565C16.3541 9.27753 16.841 8.91886 17.3881 8.67788C17.4057 8.67012 17.4232 8.66235 17.4405 8.65455C17.5253 8.61635 17.5566 8.53427 17.5435 8.45996L10.0743 9.77698C10.0961 9.90137 10.1599 10.0145 10.255 10.0976C11.1984 10.9215 12.4106 11.3276 13.639 11.111Z" fill="url(#paint17_linear_385_4301)"/>
<path d="M12.7812 7.34229C11.6383 7.60338 10.7083 8.37307 10.1344 9.41378C10.009 9.64115 10.0593 9.92672 10.2549 10.0975C11.1502 10.8791 12.2873 11.2843 13.4507 11.1388L12.7812 7.34229Z" fill="url(#paint18_linear_385_4301)"/>
<path d="M14.9344 11.1314C14.952 11.1237 14.9695 11.1159 14.9867 11.1081C15.1563 11.0317 15.1118 10.7797 14.9264 10.7659C14.9073 10.7645 14.8883 10.7631 14.8692 10.7619C14.2728 10.7226 13.6925 10.5521 13.1749 10.2529C12.3711 9.78837 11.4473 9.59323 10.514 9.75778C9.28569 9.97437 8.28553 10.7706 7.68067 11.8674C7.5553 12.0948 7.60561 12.3804 7.80122 12.5511C8.74475 13.375 9.95691 13.781 11.1853 13.5645C12.1186 13.3999 12.9199 12.9006 13.5163 12.1891C13.9004 11.7311 14.3873 11.3724 14.9344 11.1314Z" fill="url(#paint19_linear_385_4301)"/>
<path d="M14.9344 11.1314C14.952 11.1237 14.9695 11.1159 14.9867 11.1081C15.1563 11.0317 15.1118 10.7797 14.9264 10.7659C14.9073 10.7645 14.8883 10.7631 14.8692 10.7619C14.2728 10.7226 13.6925 10.5521 13.1749 10.2529C12.3711 9.78837 11.4473 9.59323 10.514 9.75778C9.28569 9.97437 8.28553 10.7706 7.68067 11.8674C7.5553 12.0948 7.60561 12.3804 7.80122 12.5511C8.74475 13.375 9.95691 13.781 11.1853 13.5645C12.1186 13.3999 12.9199 12.9006 13.5163 12.1891C13.9004 11.7311 14.3873 11.3724 14.9344 11.1314Z" fill="url(#paint20_linear_385_4301)"/>
<path d="M11.1853 13.5646C12.1186 13.4 12.9199 12.9007 13.5163 12.1893C13.9004 11.7311 14.3873 11.3725 14.9344 11.1315C14.952 11.1237 14.9695 11.116 14.9867 11.1082C15.0715 11.07 15.1028 10.9879 15.0897 10.9136L7.62059 12.2306C7.64238 12.355 7.70615 12.4681 7.80126 12.5512C8.74475 13.3751 9.9569 13.7812 11.1853 13.5646Z" fill="url(#paint21_linear_385_4301)"/>
<path d="M10.3275 9.7959C9.18455 10.057 8.25459 10.8267 7.68067 11.8674C7.5553 12.0948 7.60561 12.3803 7.80122 12.5511C8.69648 13.3328 9.83361 13.7379 10.9969 13.5924L10.3275 9.7959Z" fill="url(#paint22_linear_385_4301)"/>
<path d="M8.86863 5.0659C8.8764 5.04829 8.88416 5.03084 8.89197 5.01354C8.96832 4.84397 9.2204 4.88845 9.23416 5.0739C9.23557 5.09284 9.23691 5.1119 9.23816 5.13107C9.2775 5.72754 9.44801 6.30782 9.74714 6.82539C10.2117 7.62919 10.4068 8.55296 10.2423 9.48625C10.0257 10.7146 9.2295 11.7148 8.13263 12.3196C7.90526 12.445 7.61969 12.3947 7.44895 12.1991C6.6251 11.2555 6.21903 10.0434 6.43561 8.81503C6.60016 7.88174 7.0995 7.08041 7.81095 6.48398C8.26899 6.09994 8.62769 5.61299 8.86863 5.0659Z" fill="url(#paint23_linear_385_4301)"/>
<path d="M6.43553 8.81457C6.60008 7.88127 7.09942 7.07994 7.81087 6.48351C8.26898 6.09947 8.62765 5.61253 8.86863 5.06543C8.8764 5.04782 8.88416 5.03037 8.89196 5.01308C8.93012 4.92829 9.01224 4.897 9.08655 4.9101L7.76953 12.3792C7.64514 12.3574 7.53198 12.2937 7.44891 12.1986C6.62506 11.2551 6.21895 10.0429 6.43553 8.81457Z" fill="url(#paint24_linear_385_4301)"/>
<path d="M10.2041 9.67238C9.94299 10.8153 9.1733 11.7453 8.13259 12.3192C7.90522 12.4446 7.61965 12.3943 7.44891 12.1987C6.66722 11.3034 6.26205 10.1663 6.40761 9.00293L10.2041 9.67238Z" fill="url(#paint25_linear_385_4301)"/>
<path d="M6.41491 7.51951C6.42267 7.5019 6.43044 7.48445 6.43824 7.46716C6.51459 7.29759 6.76667 7.34206 6.78044 7.52751C6.78185 7.54645 6.78318 7.56551 6.78444 7.58469C6.82377 8.18116 6.99428 8.76143 7.29342 9.279C7.75796 10.0828 7.9531 11.0066 7.78855 11.9399C7.57196 13.1682 6.77577 14.1684 5.67891 14.7732C5.45153 14.8986 5.16596 14.8483 4.99522 14.6527C4.17138 13.7092 3.7653 12.497 3.98189 11.2686C4.14643 10.3354 4.64577 9.53402 5.35722 8.93759C5.81526 8.55355 6.17396 8.06657 6.41491 7.51951Z" fill="url(#paint26_linear_385_4301)"/>
<path d="M6.41491 7.51951C6.42267 7.5019 6.43044 7.48445 6.43824 7.46716C6.51459 7.29759 6.76667 7.34206 6.78044 7.52751C6.78185 7.54645 6.78318 7.56551 6.78444 7.58469C6.82377 8.18116 6.99428 8.76143 7.29342 9.279C7.75796 10.0828 7.9531 11.0066 7.78855 11.9399C7.57196 13.1682 6.77577 14.1684 5.67891 14.7732C5.45153 14.8986 5.16596 14.8483 4.99522 14.6527C4.17138 13.7092 3.7653 12.497 3.98189 11.2686C4.14643 10.3354 4.64577 9.53402 5.35722 8.93759C5.81526 8.55355 6.17396 8.06657 6.41491 7.51951Z" fill="url(#paint27_linear_385_4301)"/>
<path d="M3.98185 11.2687C4.1464 10.3354 4.64573 9.53404 5.35718 8.93761C5.8153 8.55357 6.17396 8.06663 6.41494 7.51953C6.42271 7.50192 6.43047 7.48447 6.43828 7.46718C6.47643 7.38239 6.55855 7.3511 6.63287 7.3642L5.31585 14.8333C5.19146 14.8115 5.07829 14.7478 4.99522 14.6527C4.17134 13.7092 3.76522 12.497 3.98185 11.2687Z" fill="url(#paint28_linear_385_4301)"/>
<path d="M7.75036 12.1265C7.48926 13.2694 6.71957 14.1994 5.67887 14.7733C5.45149 14.8987 5.16593 14.8484 4.99518 14.6528C4.21349 13.7575 3.80832 12.6204 3.95389 11.457L7.75036 12.1265Z" fill="url(#paint29_linear_385_4301)"/>
<path d="M12.4807 13.585C12.4983 13.5773 12.5157 13.5695 12.533 13.5617C12.7026 13.4854 12.6581 13.2333 12.4727 13.2195C12.4536 13.2181 12.4346 13.2168 12.4155 13.2155C11.819 13.1762 11.2387 13.0057 10.7212 12.7065C9.91738 12.242 8.99361 12.0468 8.06032 12.2114C6.83196 12.428 5.83181 13.2242 5.22694 14.321C5.10157 14.5484 5.15188 14.834 5.34749 15.0047C6.29102 15.8286 7.50318 16.2347 8.73153 16.0181C9.66483 15.8535 10.4662 15.3542 11.0626 14.6427C11.4466 14.1847 11.9336 13.826 12.4807 13.585Z" fill="url(#paint30_linear_385_4301)"/>
<path d="M8.73153 16.0182C9.66482 15.8537 10.4662 15.3543 11.0626 14.6429C11.4466 14.1848 11.9336 13.8261 12.4807 13.5851C12.4983 13.5773 12.5157 13.5696 12.533 13.5618C12.6178 13.5236 12.6491 13.4415 12.636 13.3672L5.16686 14.6842C5.18865 14.8086 5.25242 14.9218 5.34753 15.0048C6.29102 15.8287 7.50318 16.2348 8.73153 16.0182Z" fill="url(#paint31_linear_385_4301)"/>
<path d="M7.87377 12.2495C6.73083 12.5106 5.80087 13.2803 5.22694 14.321C5.10157 14.5484 5.15188 14.8339 5.34749 15.0047C6.24275 15.7864 7.37988 16.1916 8.54322 16.046L7.87377 12.2495Z" fill="url(#paint32_linear_385_4301)"/>
</g>
<defs>
<linearGradient id="paint0_linear_385_4301" x1="3.35468" y1="15.5089" x2="4.59501" y2="16.7492" gradientUnits="userSpaceOnUse">
<stop stop-color="#FEE97D"/>
<stop offset="1" stop-color="#FE860A"/>
</linearGradient>
<linearGradient id="paint1_linear_385_4301" x1="3.41177" y1="16.5881" x2="5.27545" y2="14.7244" gradientUnits="userSpaceOnUse">
<stop stop-color="#FE7701" stop-opacity="0"/>
<stop offset="0.193" stop-color="#F87105" stop-opacity="0.193"/>
<stop offset="0.447" stop-color="#E76010" stop-opacity="0.447"/>
<stop offset="0.734" stop-color="#CC4522" stop-opacity="0.734"/>
<stop offset="1" stop-color="#AC2538"/>
</linearGradient>
<linearGradient id="paint2_linear_385_4301" x1="16.8165" y1="2.36047" x2="16.2989" y2="7.30933" gradientUnits="userSpaceOnUse">
<stop stop-color="#FEE97D"/>
<stop offset="1" stop-color="#FE860A"/>
</linearGradient>
<linearGradient id="paint3_linear_385_4301" x1="19.1282" y1="3.56408" x2="12.7299" y2="2.54948" gradientUnits="userSpaceOnUse">
<stop stop-color="#FE7701" stop-opacity="0"/>
<stop offset="0.193" stop-color="#F87105" stop-opacity="0.193"/>
<stop offset="0.447" stop-color="#E76010" stop-opacity="0.447"/>
<stop offset="0.734" stop-color="#CC4522" stop-opacity="0.734"/>
<stop offset="1" stop-color="#AC2538"/>
</linearGradient>
<linearGradient id="paint4_linear_385_4301" x1="15.6267" y1="4.37125" x2="14.2112" y2="5.78671" gradientUnits="userSpaceOnUse">
<stop stop-color="#FE7701" stop-opacity="0"/>
<stop offset="0.193" stop-color="#F87105" stop-opacity="0.193"/>
<stop offset="0.447" stop-color="#E76010" stop-opacity="0.447"/>
<stop offset="0.734" stop-color="#CC4522" stop-opacity="0.734"/>
<stop offset="1" stop-color="#AC2538"/>
</linearGradient>
<linearGradient id="paint5_linear_385_4301" x1="16.6876" y1="6.00116" x2="13.4263" y2="9.75925" gradientUnits="userSpaceOnUse">
<stop stop-color="#FEE97D"/>
<stop offset="1" stop-color="#FE860A"/>
</linearGradient>
<linearGradient id="paint6_linear_385_4301" x1="16.6093" y1="6.7144" x2="13.7829" y2="6.83863" gradientUnits="userSpaceOnUse">
<stop stop-color="#FE7701" stop-opacity="0"/>
<stop offset="0.193" stop-color="#F87105" stop-opacity="0.193"/>
<stop offset="0.447" stop-color="#E76010" stop-opacity="0.447"/>
<stop offset="0.734" stop-color="#CC4522" stop-opacity="0.734"/>
<stop offset="1" stop-color="#AC2538"/>
</linearGradient>
<linearGradient id="paint7_linear_385_4301" x1="17.8917" y1="8.31205" x2="13.2309" y2="3.81264" gradientUnits="userSpaceOnUse">
<stop stop-color="#FE7701" stop-opacity="0"/>
<stop offset="0.193" stop-color="#F87105" stop-opacity="0.193"/>
<stop offset="0.447" stop-color="#E76010" stop-opacity="0.447"/>
<stop offset="0.734" stop-color="#CC4522" stop-opacity="0.734"/>
<stop offset="1" stop-color="#AC2538"/>
</linearGradient>
<linearGradient id="paint8_linear_385_4301" x1="14.56" y1="6.96647" x2="12.5887" y2="7.31476" gradientUnits="userSpaceOnUse">
<stop stop-color="#FE7701" stop-opacity="0"/>
<stop offset="0.193" stop-color="#F87105" stop-opacity="0.193"/>
<stop offset="0.447" stop-color="#E76010" stop-opacity="0.447"/>
<stop offset="0.734" stop-color="#CC4522" stop-opacity="0.734"/>
<stop offset="1" stop-color="#AC2538"/>
</linearGradient>
<linearGradient id="paint9_linear_385_4301" x1="13.9997" y1="3.30721" x2="10.2416" y2="6.56849" gradientUnits="userSpaceOnUse">
<stop stop-color="#FEE97D"/>
<stop offset="1" stop-color="#FE860A"/>
</linearGradient>
<linearGradient id="paint10_linear_385_4301" x1="11.6884" y1="2.10314" x2="16.1878" y2="6.76396" gradientUnits="userSpaceOnUse">
<stop stop-color="#FE7701" stop-opacity="0"/>
<stop offset="0.193" stop-color="#F87105" stop-opacity="0.193"/>
<stop offset="0.447" stop-color="#E76010" stop-opacity="0.447"/>
<stop offset="0.734" stop-color="#CC4522" stop-opacity="0.734"/>
<stop offset="1" stop-color="#AC2538"/>
</linearGradient>
<linearGradient id="paint11_linear_385_4301" x1="13.0343" y1="5.43498" x2="12.686" y2="7.40625" gradientUnits="userSpaceOnUse">
<stop stop-color="#FE7701" stop-opacity="0"/>
<stop offset="0.193" stop-color="#F87105" stop-opacity="0.193"/>
<stop offset="0.447" stop-color="#E76010" stop-opacity="0.447"/>
<stop offset="0.734" stop-color="#CC4522" stop-opacity="0.734"/>
<stop offset="1" stop-color="#AC2538"/>
</linearGradient>
<linearGradient id="paint12_linear_385_4301" x1="11.5443" y1="5.76108" x2="7.78617" y2="9.02235" gradientUnits="userSpaceOnUse">
<stop stop-color="#FEE97D"/>
<stop offset="1" stop-color="#FE860A"/>
</linearGradient>
<linearGradient id="paint13_linear_385_4301" x1="11.3251" y1="5.351" x2="9.63236" y2="9.6217" gradientUnits="userSpaceOnUse">
<stop stop-color="#FE7701" stop-opacity="0"/>
<stop offset="0.193" stop-color="#F87105" stop-opacity="0.193"/>
<stop offset="0.447" stop-color="#E76010" stop-opacity="0.447"/>
<stop offset="0.734" stop-color="#CC4522" stop-opacity="0.734"/>
<stop offset="1" stop-color="#AC2538"/>
</linearGradient>
<linearGradient id="paint14_linear_385_4301" x1="9.23291" y1="4.55701" x2="13.7323" y2="9.21782" gradientUnits="userSpaceOnUse">
<stop stop-color="#FE7701" stop-opacity="0"/>
<stop offset="0.193" stop-color="#F87105" stop-opacity="0.193"/>
<stop offset="0.447" stop-color="#E76010" stop-opacity="0.447"/>
<stop offset="0.734" stop-color="#CC4522" stop-opacity="0.734"/>
<stop offset="1" stop-color="#AC2538"/>
</linearGradient>
<linearGradient id="paint15_linear_385_4301" x1="10.5788" y1="7.88884" x2="10.2305" y2="9.86007" gradientUnits="userSpaceOnUse">
<stop stop-color="#FE7701" stop-opacity="0"/>
<stop offset="0.193" stop-color="#F87105" stop-opacity="0.193"/>
<stop offset="0.447" stop-color="#E76010" stop-opacity="0.447"/>
<stop offset="0.734" stop-color="#CC4522" stop-opacity="0.734"/>
<stop offset="1" stop-color="#AC2538"/>
</linearGradient>
<linearGradient id="paint16_linear_385_4301" x1="14.2365" y1="8.45546" x2="10.9753" y2="12.2136" gradientUnits="userSpaceOnUse">
<stop stop-color="#FEE97D"/>
<stop offset="1" stop-color="#FE860A"/>
</linearGradient>
<linearGradient id="paint17_linear_385_4301" x1="15.4407" y1="10.7668" x2="10.7799" y2="6.26743" gradientUnits="userSpaceOnUse">
<stop stop-color="#FE7701" stop-opacity="0"/>
<stop offset="0.193" stop-color="#F87105" stop-opacity="0.193"/>
<stop offset="0.447" stop-color="#E76010" stop-opacity="0.447"/>
<stop offset="0.734" stop-color="#CC4522" stop-opacity="0.734"/>
<stop offset="1" stop-color="#AC2538"/>
</linearGradient>
<linearGradient id="paint18_linear_385_4301" x1="12.1089" y1="9.42077" x2="10.1376" y2="9.76907" gradientUnits="userSpaceOnUse">
<stop stop-color="#FE7701" stop-opacity="0"/>
<stop offset="0.193" stop-color="#F87105" stop-opacity="0.193"/>
<stop offset="0.447" stop-color="#E76010" stop-opacity="0.447"/>
<stop offset="0.734" stop-color="#CC4522" stop-opacity="0.734"/>
<stop offset="1" stop-color="#AC2538"/>
</linearGradient>
<linearGradient id="paint19_linear_385_4301" x1="11.7819" y1="10.9101" x2="8.5206" y2="14.6682" gradientUnits="userSpaceOnUse">
<stop stop-color="#FEE97D"/>
<stop offset="1" stop-color="#FE860A"/>
</linearGradient>
<linearGradient id="paint20_linear_385_4301" x1="12.1216" y1="11.5799" x2="8.37887" y2="11.8129" gradientUnits="userSpaceOnUse">
<stop stop-color="#FE7701" stop-opacity="0"/>
<stop offset="0.193" stop-color="#F87105" stop-opacity="0.193"/>
<stop offset="0.447" stop-color="#E76010" stop-opacity="0.447"/>
<stop offset="0.734" stop-color="#CC4522" stop-opacity="0.734"/>
<stop offset="1" stop-color="#AC2538"/>
</linearGradient>
<linearGradient id="paint21_linear_385_4301" x1="12.986" y1="13.2215" x2="8.32519" y2="8.72208" gradientUnits="userSpaceOnUse">
<stop stop-color="#FE7701" stop-opacity="0"/>
<stop offset="0.193" stop-color="#F87105" stop-opacity="0.193"/>
<stop offset="0.447" stop-color="#E76010" stop-opacity="0.447"/>
<stop offset="0.734" stop-color="#CC4522" stop-opacity="0.734"/>
<stop offset="1" stop-color="#AC2538"/>
</linearGradient>
<linearGradient id="paint22_linear_385_4301" x1="9.65426" y1="11.8754" x2="7.68299" y2="12.2237" gradientUnits="userSpaceOnUse">
<stop stop-color="#FE7701" stop-opacity="0"/>
<stop offset="0.193" stop-color="#F87105" stop-opacity="0.193"/>
<stop offset="0.447" stop-color="#E76010" stop-opacity="0.447"/>
<stop offset="0.734" stop-color="#CC4522" stop-opacity="0.734"/>
<stop offset="1" stop-color="#AC2538"/>
</linearGradient>
<linearGradient id="paint23_linear_385_4301" x1="9.09054" y1="8.21325" x2="5.33245" y2="11.4745" gradientUnits="userSpaceOnUse">
<stop stop-color="#FEE97D"/>
<stop offset="1" stop-color="#FE860A"/>
</linearGradient>
<linearGradient id="paint24_linear_385_4301" x1="6.77922" y1="7.00865" x2="11.2786" y2="11.6695" gradientUnits="userSpaceOnUse">
<stop stop-color="#FE7701" stop-opacity="0"/>
<stop offset="0.193" stop-color="#F87105" stop-opacity="0.193"/>
<stop offset="0.447" stop-color="#E76010" stop-opacity="0.447"/>
<stop offset="0.734" stop-color="#CC4522" stop-opacity="0.734"/>
<stop offset="1" stop-color="#AC2538"/>
</linearGradient>
<linearGradient id="paint25_linear_385_4301" x1="8.12515" y1="10.3405" x2="7.77686" y2="12.3117" gradientUnits="userSpaceOnUse">
<stop stop-color="#FE7701" stop-opacity="0"/>
<stop offset="0.193" stop-color="#F87105" stop-opacity="0.193"/>
<stop offset="0.447" stop-color="#E76010" stop-opacity="0.447"/>
<stop offset="0.734" stop-color="#CC4522" stop-opacity="0.734"/>
<stop offset="1" stop-color="#AC2538"/>
</linearGradient>
<linearGradient id="paint26_linear_385_4301" x1="6.63512" y1="10.6671" x2="2.87703" y2="13.9284" gradientUnits="userSpaceOnUse">
<stop stop-color="#FEE97D"/>
<stop offset="1" stop-color="#FE860A"/>
</linearGradient>
<linearGradient id="paint27_linear_385_4301" x1="6.25899" y1="10.0465" x2="5.29613" y2="14.0532" gradientUnits="userSpaceOnUse">
<stop stop-color="#FE7701" stop-opacity="0"/>
<stop offset="0.193" stop-color="#F87105" stop-opacity="0.193"/>
<stop offset="0.447" stop-color="#E76010" stop-opacity="0.447"/>
<stop offset="0.734" stop-color="#CC4522" stop-opacity="0.734"/>
<stop offset="1" stop-color="#AC2538"/>
</linearGradient>
<linearGradient id="paint28_linear_385_4301" x1="4.32377" y1="9.463" x2="8.82318" y2="14.1238" gradientUnits="userSpaceOnUse">
<stop stop-color="#FE7701" stop-opacity="0"/>
<stop offset="0.193" stop-color="#F87105" stop-opacity="0.193"/>
<stop offset="0.447" stop-color="#E76010" stop-opacity="0.447"/>
<stop offset="0.734" stop-color="#CC4522" stop-opacity="0.734"/>
<stop offset="1" stop-color="#AC2538"/>
</linearGradient>
<linearGradient id="paint29_linear_385_4301" x1="5.6697" y1="12.7948" x2="5.3214" y2="14.7661" gradientUnits="userSpaceOnUse">
<stop stop-color="#FE7701" stop-opacity="0"/>
<stop offset="0.193" stop-color="#F87105" stop-opacity="0.193"/>
<stop offset="0.447" stop-color="#E76010" stop-opacity="0.447"/>
<stop offset="0.734" stop-color="#CC4522" stop-opacity="0.734"/>
<stop offset="1" stop-color="#AC2538"/>
</linearGradient>
<linearGradient id="paint30_linear_385_4301" x1="9.3308" y1="13.3644" x2="6.06952" y2="17.1225" gradientUnits="userSpaceOnUse">
<stop stop-color="#FEE97D"/>
<stop offset="1" stop-color="#FE860A"/>
</linearGradient>
<linearGradient id="paint31_linear_385_4301" x1="10.5349" y1="15.6758" x2="5.87411" y2="11.1764" gradientUnits="userSpaceOnUse">
<stop stop-color="#FE7701" stop-opacity="0"/>
<stop offset="0.193" stop-color="#F87105" stop-opacity="0.193"/>
<stop offset="0.447" stop-color="#E76010" stop-opacity="0.447"/>
<stop offset="0.734" stop-color="#CC4522" stop-opacity="0.734"/>
<stop offset="1" stop-color="#AC2538"/>
</linearGradient>
<linearGradient id="paint32_linear_385_4301" x1="7.20319" y1="14.3297" x2="5.23192" y2="14.678" gradientUnits="userSpaceOnUse">
<stop stop-color="#FE7701" stop-opacity="0"/>
<stop offset="0.193" stop-color="#F87105" stop-opacity="0.193"/>
<stop offset="0.447" stop-color="#E76010" stop-opacity="0.447"/>
<stop offset="0.734" stop-color="#CC4522" stop-opacity="0.734"/>
<stop offset="1" stop-color="#AC2538"/>
</linearGradient>
<clipPath id="clip0_385_4301">
<rect width="20" height="20" fill="white"/>
</clipPath>
</defs>
</svg>
