<svg width="22" height="22" viewBox="0 0 22 22" fill="none" xmlns="http://www.w3.org/2000/svg">
<path d="M2.16706 11.8782C1.81924 9.46091 1.64533 8.25226 2.14075 7.21886C2.63617 6.18546 3.69067 5.55731 5.79967 4.30099L7.0691 3.54479C8.98429 2.40393 9.94188 1.8335 11 1.8335C12.0581 1.8335 13.0157 2.40393 14.9309 3.54479L16.2003 4.30099C18.3093 5.55731 19.3638 6.18546 19.8592 7.21886C20.3547 8.25226 20.1808 9.46091 19.8329 11.8782L19.5774 13.6541C19.1306 16.7593 18.9072 18.3118 17.8301 19.2393C16.7529 20.1668 15.1732 20.1668 12.0139 20.1668H9.9861C6.82675 20.1668 5.24708 20.1668 4.16994 19.2393C3.0928 18.3118 2.8694 16.7593 2.4226 13.6541L2.16706 11.8782Z" stroke="black" stroke-width="1.5"/>
<path d="M11 13.75L11 16.5" stroke="black" stroke-width="1.5" stroke-linecap="round"/>
</svg>
