<svg width="20" height="20" viewBox="0 0 20 20" fill="none" xmlns="http://www.w3.org/2000/svg">
<g clip-path="url(#clip0_385_4308)">
<g clip-path="url(#clip1_385_4308)">
<path d="M0.572617 12.5443V15.2931H0.573715C0.582303 15.9604 0.730224 16.6305 1.03399 17.2642C2.21509 19.7283 5.29489 20.7084 7.91293 19.4535C8.37936 19.2299 8.79964 18.9505 9.16873 18.6283C10.2182 17.7121 11.5372 17.1531 12.9238 17.0179C15.676 16.7493 18.1094 15.0282 19.0425 12.377C19.3011 11.6436 19.4312 10.871 19.4271 10.0934L19.4273 10.0933V7.48193L0.572617 12.5443Z" fill="url(#paint0_linear_385_4308)"/>
<path d="M0.572617 12.5443V15.2931H0.573715C0.582303 15.9604 0.730224 16.6305 1.03399 17.2642C2.21509 19.7283 5.29489 20.7084 7.91293 19.4535C8.37936 19.2299 8.79964 18.9505 9.16873 18.6283C10.2182 17.7121 11.5372 17.1531 12.9238 17.0179C15.676 16.7493 18.1094 15.0282 19.0425 12.377C19.3011 11.6436 19.4312 10.871 19.4271 10.0934L19.4273 10.0933V7.48193L0.572617 12.5443Z" fill="url(#paint1_linear_385_4308)"/>
<path d="M0.572617 12.5443V15.2931H0.573715C0.582303 15.9604 0.730224 16.6305 1.03399 17.2642C2.21509 19.7283 5.29489 20.7084 7.91293 19.4535C8.37936 19.2299 8.79964 18.9505 9.16873 18.6283C10.2182 17.7121 11.5372 17.1531 12.9238 17.0179C15.676 16.7493 18.1094 15.0282 19.0425 12.377C19.3011 11.6436 19.4312 10.871 19.4271 10.0934L19.4273 10.0933V7.48193L0.572617 12.5443Z" fill="url(#paint2_linear_385_4308)"/>
<path d="M14.2526 0.457875C10.2968 -0.934361 6.02784 0.95513 4.71748 4.67815C4.7034 4.71811 4.68866 4.76027 4.67325 4.80438C4.12207 6.38497 3.21321 7.81035 2.04886 9.01301C0.601208 10.5083 0.12909 12.7194 1.03395 14.6072C2.21505 17.0712 5.29486 18.0514 7.9129 16.7964C8.37933 16.5729 8.7996 16.2934 9.1687 15.9712C10.2182 15.0551 11.5372 14.4961 12.9237 14.3608C15.676 14.0922 18.1094 12.3711 19.0425 9.71991C20.3528 5.99686 18.2083 1.85011 14.2526 0.457875Z" fill="url(#paint3_linear_385_4308)"/>
<path d="M14.2526 0.457875C10.2968 -0.934361 6.02784 0.95513 4.71748 4.67815C4.7034 4.71811 4.68866 4.76027 4.67325 4.80438C4.12207 6.38497 3.21321 7.81035 2.04886 9.01301C0.601208 10.5083 0.12909 12.7194 1.03395 14.6072C2.21505 17.0712 5.29486 18.0514 7.9129 16.7964C8.37933 16.5729 8.7996 16.2934 9.1687 15.9712C10.2182 15.0551 11.5372 14.4961 12.9237 14.3608C15.676 14.0922 18.1094 12.3711 19.0425 9.71991C20.3528 5.99686 18.2083 1.85011 14.2526 0.457875Z" fill="url(#paint4_linear_385_4308)"/>
<path d="M19.0427 9.71979C18.1094 12.371 15.6758 14.0922 12.9238 14.3607C11.537 14.4958 10.2181 15.0548 9.16853 15.971C8.79975 16.2931 8.37916 16.5726 7.91281 16.7961C5.29504 18.0514 2.215 17.071 1.03394 14.6072C0.404022 13.2924 0.441591 11.8213 1.01151 10.544L11.5554 0.000104059C12.4451 -0.00448418 13.3568 0.142575 14.2525 0.45779C18.2084 1.84999 20.3529 5.99654 19.0427 9.71979Z" fill="url(#paint5_linear_385_4308)"/>
<path d="M14.2526 0.457988C12.9941 0.0150473 11.704 -0.0952272 10.4875 0.0795179V15.0774C11.2427 14.6886 12.0703 14.4442 12.9238 14.3609C15.676 14.0924 18.1094 12.3712 19.0425 9.72007C20.3528 5.99697 18.2083 1.85022 14.2526 0.457988Z" fill="url(#paint6_linear_385_4308)"/>
<path d="M5.53281 16.1977C4.01144 16.1977 2.68332 15.3986 2.06677 14.1123C1.39073 12.702 1.70669 11.0132 2.87171 9.80994C4.18787 8.45049 5.15787 6.89335 5.75473 5.18174L5.79799 5.05833C6.20795 3.89351 6.97913 2.90751 8.02803 2.20712C9.06815 1.51261 10.3014 1.14551 11.5945 1.14551C12.3652 1.14551 13.1316 1.2777 13.8723 1.53845C17.226 2.7188 19.0607 6.21853 17.9621 9.3399C17.5872 10.4051 16.9024 11.3302 15.9817 12.0151C15.074 12.6903 13.9781 13.1074 12.8125 13.2211C11.1665 13.3817 9.64607 14.0344 8.41552 15.1086C8.11713 15.3691 7.78148 15.5895 7.41783 15.7638C6.81728 16.0517 6.18309 16.1977 5.53293 16.1977L5.53281 16.1977Z" fill="url(#paint7_linear_385_4308)"/>
<path d="M8.90168 7.59953L7.21089 7.9238C6.55344 8.04988 6.06854 8.6109 6.03893 9.27968L5.98866 10.4162C5.95838 11.1002 6.41199 11.7115 7.07528 11.8809L9.62246 12.5312C9.81793 12.5811 10.0217 12.5896 10.2206 12.556C10.4195 12.5224 10.6092 12.4476 10.7775 12.3363L10.8445 12.292C11.5433 11.83 11.7043 10.8725 11.195 10.2074L10.9178 9.84529C10.7371 9.60937 10.6336 9.32353 10.6212 9.02666L10.6184 8.95921C10.5816 8.07666 9.76909 7.43317 8.90168 7.59953Z" fill="url(#paint8_linear_385_4308)"/>
<path d="M13.8199 5.33488C13.9205 5.65594 13.7504 5.99928 13.434 6.11371L13.0029 6.26967C11.9059 6.66645 11.228 7.76783 11.3679 8.9259C11.5378 10.3323 12.8392 11.3182 14.239 11.101L14.7878 11.0158C16.1072 10.8111 17.1512 9.79139 17.3868 8.47716C17.6256 7.14567 16.9812 5.81155 15.79 5.17073L14.7171 4.59363C14.2209 4.32669 13.6514 4.79728 13.8199 5.33488Z" fill="url(#paint9_linear_385_4308)"/>
<path d="M11.802 6.30607L12.6362 5.67478C12.9067 5.4701 13.1031 5.1829 13.1958 4.85662L13.3901 4.17278C13.6256 3.34368 13.1446 2.48058 12.3156 2.24478L11.1577 1.91549C10.9468 1.85551 10.7256 1.84064 10.5086 1.87184C10.2916 1.90305 10.0835 1.97962 9.89807 2.09658L8.87556 2.74141C7.99003 3.29984 7.89442 4.55454 8.68513 5.2407L9.83705 6.24031C10.3942 6.72384 11.2138 6.75125 11.802 6.30607Z" fill="url(#paint10_linear_385_4308)"/>
<path d="M8.13862 5.4454L8.45482 5.77289C8.82015 6.15129 8.67195 6.78074 8.17619 6.95638L7.45905 7.21046C6.79842 7.44454 6.22466 6.69584 6.62242 6.11882L7.02333 5.53721C7.28262 5.16117 7.82137 5.11682 8.13862 5.4454Z" fill="url(#paint11_linear_385_4308)"/>
<path d="M6.48431 13.3301C7.66078 13.3301 8.6145 12.5302 8.6145 11.5435C8.6145 10.5567 7.66078 9.75684 6.48431 9.75684C5.30783 9.75684 4.35411 10.5567 4.35411 11.5435C4.35411 12.5302 5.30783 13.3301 6.48431 13.3301Z" fill="url(#paint12_linear_385_4308)"/>
<path d="M4.35411 11.5435C4.35411 12.5303 5.30784 13.3301 6.48431 13.3301C7.66078 13.3301 8.6145 12.5303 8.6145 11.5435C8.6145 11.2401 8.52399 10.9544 8.36486 10.7041H4.60372C4.44458 10.9544 4.35411 11.2401 4.35411 11.5435Z" fill="url(#paint13_linear_385_4308)"/>
<path d="M8.6145 11.5435C8.6145 10.7245 7.95732 10.0348 7.06132 9.82373L4.5652 12.3198C4.90967 12.9177 5.63951 13.3301 6.48426 13.3301C7.66077 13.3301 8.6145 12.5302 8.6145 11.5435Z" fill="url(#paint14_linear_385_4308)"/>
</g>
</g>
<defs>
<linearGradient id="paint0_linear_385_4308" x1="4.80662" y1="13.7409" x2="15.8323" y2="13.7409" gradientUnits="userSpaceOnUse">
<stop stop-color="#F89580"/>
<stop offset="1" stop-color="#C4573A"/>
</linearGradient>
<linearGradient id="paint1_linear_385_4308" x1="10.2779" y1="12.8359" x2="11.4233" y2="17.8295" gradientUnits="userSpaceOnUse">
<stop stop-color="#C4573A" stop-opacity="0"/>
<stop offset="0.241" stop-color="#BF5539" stop-opacity="0.241"/>
<stop offset="0.524" stop-color="#B15036" stop-opacity="0.524"/>
<stop offset="0.827" stop-color="#994631" stop-opacity="0.827"/>
<stop offset="1" stop-color="#883F2E"/>
</linearGradient>
<linearGradient id="paint2_linear_385_4308" x1="11.587" y1="13.7409" x2="18.0376" y2="13.7409" gradientUnits="userSpaceOnUse">
<stop stop-color="#C4573A" stop-opacity="0"/>
<stop offset="0.241" stop-color="#BF5539" stop-opacity="0.241"/>
<stop offset="0.524" stop-color="#B15036" stop-opacity="0.524"/>
<stop offset="0.827" stop-color="#994631" stop-opacity="0.827"/>
<stop offset="1" stop-color="#883F2E"/>
</linearGradient>
<linearGradient id="paint3_linear_385_4308" x1="3.79831" y1="0.226619" x2="14.0371" y2="15.8252" gradientUnits="userSpaceOnUse">
<stop stop-color="#FFFAF8"/>
<stop offset="1" stop-color="#FFDFCF"/>
</linearGradient>
<linearGradient id="paint4_linear_385_4308" x1="9.99995" y1="13.7126" x2="9.99995" y2="17.2402" gradientUnits="userSpaceOnUse">
<stop stop-color="#FFA78F" stop-opacity="0"/>
<stop offset="0.898" stop-color="#FFA78F" stop-opacity="0.898"/>
<stop offset="1" stop-color="#FFA78F"/>
</linearGradient>
<linearGradient id="paint5_linear_385_4308" x1="11.3599" y1="12.4745" x2="12.5969" y2="14.9484" gradientUnits="userSpaceOnUse">
<stop stop-color="#FFA78F" stop-opacity="0"/>
<stop offset="0.898" stop-color="#FFA78F" stop-opacity="0.898"/>
<stop offset="1" stop-color="#FFA78F"/>
</linearGradient>
<linearGradient id="paint6_linear_385_4308" x1="15.7102" y1="7.53897" x2="19.4211" y2="7.53897" gradientUnits="userSpaceOnUse">
<stop stop-color="#FFA78F" stop-opacity="0"/>
<stop offset="0.898" stop-color="#FFA78F" stop-opacity="0.898"/>
<stop offset="1" stop-color="#FFA78F"/>
</linearGradient>
<linearGradient id="paint7_linear_385_4308" x1="4.12273" y1="3.76617" x2="16.423" y2="15.7915" gradientUnits="userSpaceOnUse">
<stop stop-color="#FE646F"/>
<stop offset="1" stop-color="#C41926"/>
</linearGradient>
<linearGradient id="paint8_linear_385_4308" x1="2.21195" y1="5.95854" x2="28.5445" y2="22.3476" gradientUnits="userSpaceOnUse">
<stop stop-color="#A72B2B" stop-opacity="0"/>
<stop offset="0.176" stop-color="#9D2A28" stop-opacity="0.176"/>
<stop offset="0.484" stop-color="#80271E" stop-opacity="0.484"/>
<stop offset="0.885" stop-color="#512210" stop-opacity="0.885"/>
<stop offset="1" stop-color="#42210B"/>
</linearGradient>
<linearGradient id="paint9_linear_385_4308" x1="8.2556" y1="4.28265" x2="33.0864" y2="19.737" gradientUnits="userSpaceOnUse">
<stop stop-color="#A72B2B" stop-opacity="0"/>
<stop offset="0.176" stop-color="#9D2A28" stop-opacity="0.176"/>
<stop offset="0.484" stop-color="#80271E" stop-opacity="0.484"/>
<stop offset="0.885" stop-color="#512210" stop-opacity="0.885"/>
<stop offset="1" stop-color="#42210B"/>
</linearGradient>
<linearGradient id="paint10_linear_385_4308" x1="5.27622" y1="0.60827" x2="27.2762" y2="14.3007" gradientUnits="userSpaceOnUse">
<stop stop-color="#A72B2B" stop-opacity="0"/>
<stop offset="0.176" stop-color="#9D2A28" stop-opacity="0.176"/>
<stop offset="0.484" stop-color="#80271E" stop-opacity="0.484"/>
<stop offset="0.885" stop-color="#512210" stop-opacity="0.885"/>
<stop offset="1" stop-color="#42210B"/>
</linearGradient>
<linearGradient id="paint11_linear_385_4308" x1="5.47791" y1="5.0316" x2="13.9236" y2="10.2881" gradientUnits="userSpaceOnUse">
<stop stop-color="#A72B2B" stop-opacity="0"/>
<stop offset="0.176" stop-color="#9D2A28" stop-opacity="0.176"/>
<stop offset="0.484" stop-color="#80271E" stop-opacity="0.484"/>
<stop offset="0.885" stop-color="#512210" stop-opacity="0.885"/>
<stop offset="1" stop-color="#42210B"/>
</linearGradient>
<linearGradient id="paint12_linear_385_4308" x1="5.75431" y1="10.5278" x2="7.15925" y2="12.4825" gradientUnits="userSpaceOnUse">
<stop stop-color="#FFFAF8"/>
<stop offset="1" stop-color="#FFDFCF"/>
</linearGradient>
<linearGradient id="paint13_linear_385_4308" x1="6.48431" y1="11.4677" x2="6.48431" y2="13.3005" gradientUnits="userSpaceOnUse">
<stop stop-color="#FFA78F" stop-opacity="0"/>
<stop offset="0.898" stop-color="#FFA78F" stop-opacity="0.898"/>
<stop offset="1" stop-color="#FFA78F"/>
</linearGradient>
<linearGradient id="paint14_linear_385_4308" x1="6.41681" y1="11.4762" x2="7.761" y2="12.8204" gradientUnits="userSpaceOnUse">
<stop stop-color="#FFA78F" stop-opacity="0"/>
<stop offset="0.898" stop-color="#FFA78F" stop-opacity="0.898"/>
<stop offset="1" stop-color="#FFA78F"/>
</linearGradient>
<clipPath id="clip0_385_4308">
<rect width="20" height="20" fill="white"/>
</clipPath>
<clipPath id="clip1_385_4308">
<rect width="20" height="20" fill="white"/>
</clipPath>
</defs>
</svg>
