<svg width="25" height="24" viewBox="0 0 25 24" fill="none" xmlns="http://www.w3.org/2000/svg">
<path d="M20 0C21.3261 0 22.5979 0.526784 23.5355 1.46447C24.4732 2.40215 25 3.67392 25 5V15C25 16.3261 24.4732 17.5979 23.5355 18.5355C22.5979 19.4732 21.3261 20 20 20H14.095L8.1425 23.5713C7.96324 23.6788 7.75986 23.7397 7.55097 23.7484C7.34208 23.757 7.13436 23.7131 6.94682 23.6207C6.75929 23.5283 6.59792 23.3904 6.47749 23.2195C6.35707 23.0486 6.28143 22.8502 6.2575 22.6425L6.25 22.5V20H5C3.7172 20 2.48347 19.507 1.55399 18.6229C0.624506 17.7387 0.0703903 16.5312 0.00625014 15.25L0 15V5C0 3.67392 0.526784 2.40215 1.46447 1.46447C2.40215 0.526784 3.67392 0 5 0H20ZM16.5 11.6075C16.2633 11.3755 15.9441 11.247 15.6126 11.2502C15.2812 11.2535 14.9646 11.3883 14.7325 11.625C14.4415 11.9221 14.0942 12.1581 13.7108 12.3192C13.3275 12.4803 12.9158 12.5633 12.5 12.5633C12.0842 12.5633 11.6725 12.4803 11.2892 12.3192C10.9058 12.1581 10.5585 11.9221 10.2675 11.625C10.0343 11.3938 9.71938 11.2637 9.39095 11.2628C9.06252 11.2618 8.74693 11.3902 8.51241 11.6202C8.27789 11.8501 8.14328 12.1631 8.13768 12.4914C8.13208 12.8198 8.25595 13.1372 8.4825 13.375C9.00622 13.9094 9.63131 14.334 10.3212 14.6238C11.011 14.9137 11.7517 15.063 12.5 15.063C13.2483 15.063 13.989 14.9137 14.6788 14.6238C15.3687 14.334 15.9938 13.9094 16.5175 13.375C16.7495 13.1383 16.878 12.8191 16.8748 12.4876C16.8715 12.1562 16.7367 11.8396 16.5 11.6075ZM9.3875 6.25H9.375C9.04348 6.25 8.72554 6.3817 8.49112 6.61612C8.2567 6.85054 8.125 7.16848 8.125 7.5C8.125 7.83152 8.2567 8.14946 8.49112 8.38388C8.72554 8.61831 9.04348 8.75 9.375 8.75H9.3875C9.71902 8.75 10.037 8.61831 10.2714 8.38388C10.5058 8.14946 10.6375 7.83152 10.6375 7.5C10.6375 7.16848 10.5058 6.85054 10.2714 6.61612C10.037 6.3817 9.71902 6.25 9.3875 6.25ZM15.6375 6.25H15.625C15.2935 6.25 14.9755 6.3817 14.7411 6.61612C14.5067 6.85054 14.375 7.16848 14.375 7.5C14.375 7.83152 14.5067 8.14946 14.7411 8.38388C14.9755 8.61831 15.2935 8.75 15.625 8.75H15.6375C15.969 8.75 16.287 8.61831 16.5214 8.38388C16.7558 8.14946 16.8875 7.83152 16.8875 7.5C16.8875 7.16848 16.7558 6.85054 16.5214 6.61612C16.287 6.3817 15.969 6.25 15.6375 6.25Z" fill="black" fill-opacity="0.6"/>
</svg>
