<svg width="16" height="20" viewBox="0 0 16 20" fill="none" xmlns="http://www.w3.org/2000/svg">
<path d="M11.2 12.25C13.8234 12.25 15.95 14.3766 15.95 17C15.95 18.5188 14.7188 19.75 13.2 19.75H3.20001C1.68123 19.75 0.450012 18.5188 0.450012 17C0.450012 14.3766 2.57666 12.25 5.20001 12.25H11.2ZM5.20001 13.75C3.40509 13.75 1.95001 15.2051 1.95001 17C1.95001 17.6904 2.50966 18.25 3.20001 18.25H13.2C13.8904 18.25 14.45 17.6904 14.45 17C14.45 15.2051 12.9949 13.75 11.2 13.75H5.20001ZM8.20001 0.25C10.8234 0.25 12.95 2.37665 12.95 5C12.95 7.62335 10.8234 9.75 8.20001 9.75C5.57666 9.75 3.45001 7.62335 3.45001 5C3.45001 2.37665 5.57666 0.25 8.20001 0.25ZM8.20001 1.75C6.40509 1.75 4.95001 3.20507 4.95001 5C4.95001 6.79493 6.40509 8.25 8.20001 8.25C9.99494 8.25 11.45 6.79493 11.45 5C11.45 3.20507 9.99494 1.75 8.20001 1.75Z" fill="#22282F"/>
</svg>
