<svg width="30" height="30" viewBox="0 0 30 30" fill="none" xmlns="http://www.w3.org/2000/svg">
<path d="M3.75 8.75V6.25C3.75 5.58696 4.01339 4.95107 4.48223 4.48223C4.95107 4.01339 5.58696 3.75 6.25 3.75H8.75M21.25 3.75H23.75C24.413 3.75 25.0489 4.01339 25.5178 4.48223C25.9866 4.95107 26.25 5.58696 26.25 6.25V8.75M26.25 21.25V23.75C26.25 24.413 25.9866 25.0489 25.5178 25.5178C25.0489 25.9866 24.413 26.25 23.75 26.25H21.25M8.75 26.25H6.25C5.58696 26.25 4.95107 25.9866 4.48223 25.5178C4.01339 25.0489 3.75 24.413 3.75 23.75V21.25" stroke="#262135" stroke-linecap="round" stroke-linejoin="round"/>
<g clip-path="url(#clip0_153_819)">
<path fill-rule="evenodd" clip-rule="evenodd" d="M13.8281 8.9375C12.3984 8.9375 11.0273 9.50544 10.0164 10.5164C9.00542 11.5273 8.43748 12.8984 8.43748 14.3281V14.8137C8.15246 14.9783 7.91579 15.215 7.75124 15.5C7.58669 15.7851 7.50006 16.1084 7.50006 16.4375C7.50006 16.7666 7.58669 17.0899 7.75124 17.375C7.91579 17.66 8.15246 17.8967 8.43748 18.0612V19.4844C8.43748 20.1681 8.7091 20.8239 9.19259 21.3074C9.67609 21.7909 10.3318 22.0625 11.0156 22.0625H18.9844C19.6681 22.0625 20.3239 21.7909 20.8074 21.3074C21.2909 20.8239 21.5625 20.1681 21.5625 19.4844V18.0612C21.8475 17.8967 22.0842 17.66 22.2487 17.375C22.4133 17.0899 22.4999 16.7666 22.4999 16.4375C22.4999 16.1084 22.4133 15.7851 22.2487 15.5C22.0842 15.215 21.8475 14.9783 21.5625 14.8137V14.3281C21.5625 12.8984 20.9945 11.5273 19.9836 10.5164C18.9727 9.50544 17.6015 8.9375 16.1719 8.9375H13.8281ZM20.625 15.9687H9.37498C9.25066 15.9687 9.13143 16.0181 9.04352 16.106C8.95561 16.194 8.90623 16.3132 8.90623 16.4375C8.90623 16.5618 8.95561 16.681 9.04352 16.769C9.13143 16.8569 9.25066 16.9062 9.37498 16.9062H20.625C20.7493 16.9062 20.8685 16.8569 20.9564 16.769C21.0443 16.681 21.0937 16.5618 21.0937 16.4375C21.0937 16.3132 21.0443 16.194 20.9564 16.106C20.8685 16.0181 20.7493 15.9687 20.625 15.9687ZM20.1562 14.5625V14.3281C20.1562 13.2714 19.7364 12.258 18.9892 11.5107C18.242 10.7635 17.2286 10.3437 16.1719 10.3437H13.8281C12.7714 10.3437 11.7579 10.7635 11.0107 11.5107C10.2635 12.258 9.84373 13.2714 9.84373 14.3281V14.5625H20.1562ZM17.8125 18.3125H20.1562V19.4844C20.1562 20.1312 19.6312 20.6562 18.9844 20.6562H11.0156C10.3687 20.6562 9.84373 20.1312 9.84373 19.4844V18.3125H15.9375L16.875 19.25L17.8125 18.3125Z" fill="#262135"/>
</g>
<defs>
<clipPath id="clip0_153_819">
<rect width="15" height="15" fill="white" transform="translate(7.5 8)"/>
</clipPath>
</defs>
</svg>
