<svg width="22" height="22" viewBox="0 0 22 22" fill="none" xmlns="http://www.w3.org/2000/svg">
<path d="M1.83325 11.9894V9.933H2.90062L2.90045 11.9894H1.83325ZM4.02322 14.3037C3.86281 14.3037 3.712 14.2412 3.59857 14.1277C3.48514 14.0143 3.4227 13.8635 3.42271 13.7031L3.42283 12.2527C3.42283 12.252 3.42293 12.2513 3.42293 12.2506C3.42293 12.2499 3.42283 12.2493 3.42283 12.2486L3.42315 8.21989C3.42319 7.88883 3.69259 7.61947 4.02366 7.61947H5.03375L5.03325 14.3037L4.02322 14.3037ZM7.15349 16.2476C7.04007 16.361 6.8893 16.4235 6.72892 16.4235H6.72884L6.15596 16.4234C5.82489 16.4233 5.55554 16.1539 5.55554 15.8229L5.55617 7.3601C5.55617 7.35948 5.55626 7.35889 5.55626 7.35827C5.55626 7.35764 5.55617 7.35706 5.55617 7.35643L5.55626 6.10053C5.55626 5.94011 5.61874 5.7893 5.73218 5.67589C5.84561 5.56248 5.99638 5.50002 6.15677 5.50002H6.15686L6.72958 5.50012H6.7296C7.06069 5.50015 7.33003 5.76957 7.33002 6.10066L7.32981 9.67064C7.32981 9.67113 7.32972 9.67162 7.32972 9.67214C7.32972 9.67265 7.3298 9.67313 7.32981 9.67365L7.32944 15.823C7.32942 15.9834 7.26694 16.1342 7.15349 16.2476ZM7.85206 11.9898L7.85218 9.93339L14.1478 9.93403L14.1479 11.9905L7.85206 11.9898ZM15.8439 16.4234L15.2711 16.4234C14.94 16.4234 14.6706 16.1541 14.6706 15.8229L14.6699 6.10061C14.6699 5.76949 14.9392 5.5001 15.2704 5.50006L15.8431 5.5C16.0036 5.5 16.1544 5.56242 16.2678 5.67584C16.3812 5.78929 16.4437 5.94006 16.4437 6.10052L16.4443 14.5648L16.4443 14.565L16.4443 14.5651L16.4444 15.8228C16.4444 16.154 16.175 16.4233 15.8439 16.4234ZM17.9767 14.3036L16.9667 14.3037L16.9662 7.61952L17.9762 7.61943C18.1367 7.61943 18.2875 7.68186 18.4009 7.79528C18.5143 7.90869 18.5768 8.0595 18.5768 8.21992L18.5769 9.67278L18.5769 9.67321L18.5769 9.67364L18.5772 13.7031C18.5772 14.0342 18.3079 14.3036 17.9767 14.3036ZM20.1666 11.9908H19.0995L19.0993 9.93441H20.1666V11.9908Z" fill="black"/>
</svg>
